<svg xmlns="http://www.w3.org/2000/svg" viewBox="0 0 75.58 75.58"><defs><style>.cls-1{fill:#fff;}</style></defs><title>icon-help</title><g id="Layer_2" data-name="Layer 2"><g id="Layer_1-2" data-name="Layer 1"><circle cx="37.79" cy="37.79" r="37.79"/><path class="cls-1" d="M31.69,29.27a3.2,3.2,0,0,1-.42,0c-2.62,0-5.24,0-7.86,0-.49,0-.61-.12-.58-.62a18.59,18.59,0,0,1,1.43-6.44,11.68,11.68,0,0,1,5.31-5.74c3.43-1.82,7.12-2,10.89-1.54A17.49,17.49,0,0,1,47,17.11a10.71,10.71,0,0,1,5.57,8A11.23,11.23,0,0,1,48,36.46c-1.45,1.09-2.89,2.19-4.35,3.25a5.86,5.86,0,0,0-2.57,5.06c0,.1,0,.2,0,.35H32.38c0-1,0-2,0-3,0-.4.08-.8.13-1.2a6.62,6.62,0,0,1,2.85-4.45c1.73-1.37,3.58-2.61,5.28-4a6.29,6.29,0,0,0,2.51-4.33c.17-2-.94-4.56-2.72-5.17a8.38,8.38,0,0,0-4.88-.18,4.55,4.55,0,0,0-3.09,3.29C32.12,27.08,32,28.15,31.69,29.27Z"/><path class="cls-1" d="M42.56,55.15c.2,3.16-2,5.58-5.45,5.67a5.23,5.23,0,0,1-5.62-4.9,5.3,5.3,0,0,1,5.36-6.08A5.27,5.27,0,0,1,42.56,55.15Z"/></g></g></svg>