<svg xmlns="http://www.w3.org/2000/svg" viewBox="0 0 75.58 75.58"><defs><style>.cls-1{fill:#1f7245;}.cls-2{fill:#fff;}.cls-3{fill:#1e7246;}</style></defs><title>icon-links-excel</title><g id="Layer_2" data-name="Layer 2"><g id="Layer_1-2" data-name="Layer 1"><circle class="cls-1" cx="37.79" cy="37.79" r="37.79"/><path class="cls-2" d="M14.7,20.2l26.23-4.54V59.92c-4.37-.71-8.73-1.5-13.1-2.25L14.7,55.4Z"/><path class="cls-2" d="M48.91,33.89V29.28h-6.6V27.94H48.9V23.31H42.29V20.82a4.68,4.68,0,0,1,.55-.05H60.16a.66.66,0,0,1,.7.7c0,.27,0,.54,0,.82V53.23c0,1.6,0,1.61-1.62,1.61h-17v-3h6.6V47.27H42.3V45.9h6.6V41.28H42.31V39.89h6.58V35.27H42.3V33.89Z"/><path class="cls-3" d="M33.62,45.63l-3.4-.2L28,39.87l-2.37,5.25-2.95-.2,3.35-7.37-3-7.51,3-.14L27.94,35l2.41-5.45,3.11-.22L30,37.52Z"/><path class="cls-3" d="M50.33,27.85V23.36h7.54v4.49Z"/><path class="cls-3" d="M57.87,29.32v4.5H50.35v-4.5Z"/><path class="cls-3" d="M50.32,39.82V35.28h7.53v4.54Z"/><path class="cls-3" d="M57.87,41.31v4.52H50.35V41.31Z"/><path class="cls-3" d="M57.87,47.3v4.52H50.33V47.3Z"/></g></g></svg>