<svg xmlns="http://www.w3.org/2000/svg" viewBox="0 0 76.58 76.58"><defs><style>.cls-1,.cls-3{fill:#fff;}.cls-1{stroke:#1d1d1b;stroke-miterlimit:10;}.cls-2{fill:#030303;}.cls-4{fill:#010101;}</style></defs><title>icon-links-print</title><g id="Layer_2" data-name="Layer 2"><g id="Layer_1-2" data-name="Layer 1"><circle class="cls-1" cx="38.29" cy="38.29" r="37.79"/><path class="cls-2" d="M62.14,29.75V62.14H22.4a1.07,1.07,0,0,1-.14-.76q0-3.12,0-6.24a1.55,1.55,0,0,0-.06-.64.93.93,0,0,0-.67-.12c-1.63,0-3.25,0-4.88,0a2.34,2.34,0,0,1-1.25-.3,1.81,1.81,0,0,1-1-1.69q0-11.07,0-22.14a1.91,1.91,0,0,1,2-2c1.52,0,3,0,4.56,0a3.13,3.13,0,0,0,1.1-.07,1.16,1.16,0,0,0,.11-.73v-12a1.48,1.48,0,0,1,.17-.9H54.18a1,1,0,0,1,.2.85V27.35a1.69,1.69,0,0,0,.08.74,1,1,0,0,0,.67.11H60a2.46,2.46,0,0,1,1,.16A1.78,1.78,0,0,1,62.14,29.75Z"/><path class="cls-3" d="M26.42,58.11V44.3H50.2V58.11Z"/><path class="cls-3" d="M50.22,18.52v9.81H26.43V18.52Z"/><path class="cls-3" d="M56.19,36.27a1.94,1.94,0,0,1-1.95-2,1.94,1.94,0,0,1,3.88,0A1.93,1.93,0,0,1,56.19,36.27Z"/><path class="cls-4" d="M46.32,48.2v2h-16v-2Z"/><path class="cls-4" d="M30.34,52.19h10v2h-10Z"/></g></g></svg>