<svg xmlns="http://www.w3.org/2000/svg" viewBox="0 0 75.58 75.58"><defs><style>.cls-1{fill:#d24725;}.cls-2{fill:#fff;}.cls-3{fill:#fffdfd;}.cls-4{fill:#fef9f7;}</style></defs><title>icon-links-powerpoint</title><g id="Layer_2" data-name="Layer 2"><g id="Layer_1-2" data-name="Layer 1"><circle class="cls-1" cx="37.79" cy="37.79" r="37.79"/><path class="cls-2" d="M60.33,54.89a22.55,22.55,0,0,1-2.51.31c-4.47,0-8.93,0-13.4,0H42v5.08a14.37,14.37,0,0,1-5.48-.17C29.68,58.9,22.8,57.71,15.92,56.5a10.56,10.56,0,0,1-1-.3V19.45C23.82,18.1,32.65,16,41.93,15.09V20H44c4.64,0,9.29,0,13.93,0,2.22,0,2.72.51,2.72,2.69q0,14.91,0,29.81A17.05,17.05,0,0,1,60.33,54.89Z"/><path class="cls-1" d="M59,53.59H42.09V49.5H54.27V47.39H42.06V44.72H54.29V42.59H42v-2.9c5.75.6,9.05-1.7,9.15-6.46H44.54V26.38L42,26.74v-5H59Z"/><path class="cls-1" d="M26.29,40.2v6.07l-3-.29V29c2,0,3.94-.08,5.85,0a3.81,3.81,0,0,1,3.55,2.71,6.67,6.67,0,0,1-.32,5.61,4.7,4.7,0,0,1-4.21,2.73C27.59,40.11,27,40.16,26.29,40.2Z"/><path class="cls-3" d="M52.24,32H45.61V25.39A6.63,6.63,0,0,1,52.24,32Z"/><path class="cls-4" d="M26.38,32c2.55-.19,3.33.44,3.31,2.52s-.82,2.69-3.31,2.54Z"/></g></g></svg>