<svg xmlns="http://www.w3.org/2000/svg" viewBox="0 0 75.58 75.58"><defs><style>.cls-1{fill:#e21f25;}.cls-2{fill:#fff;}</style></defs><title>icon-link-pdf</title><g id="Layer_2" data-name="Layer 2"><g id="Layer_1-2" data-name="Layer 1"><circle class="cls-1" cx="37.79" cy="37.79" r="37.79"/><path class="cls-2" d="M55.66,28.54l-.33-.22a5.06,5.06,0,0,0-2.94-1c-2.32,0-4.64,0-7,0A4.6,4.6,0,0,1,43.91,27a3.11,3.11,0,0,1-2.11-3c-.06-2,0-4.06,0-6.08a8.07,8.07,0,0,0-.9-3.57.59.59,0,0,1-.07-.37L55.75,28.43Z"/><path class="cls-2" d="M18.82,37.81V16.44a3.26,3.26,0,0,1,1.59-3A2.9,2.9,0,0,1,22,13c4.62,0,9.23,0,13.84,0a7,7,0,0,1,2,.33,3.82,3.82,0,0,1,2.68,3.15,7.28,7.28,0,0,1,.11,1.4q0,3.09,0,6.19a5.28,5.28,0,0,0,.45,2.22,3.45,3.45,0,0,0,3.31,2.18c2.58,0,5.16,0,7.75,0a4.38,4.38,0,0,1,4.5,4c.13,1.37.1,2.77.1,4.15q0,11.29,0,22.58a3.22,3.22,0,0,1-2.49,3.32,2.84,2.84,0,0,1-.77.08H22.65a5.25,5.25,0,0,1-1.59-.16,3,3,0,0,1-2.17-2.59,13.64,13.64,0,0,1-.06-1.92Q18.82,47.88,18.82,37.81Z"/><path class="cls-1" d="M33.08,45.46V34.08c.2,0,.38,0,.56,0,1.51,0,3,0,4.52,0a8.67,8.67,0,0,1,1.61.13A4.12,4.12,0,0,1,43.1,37a8.29,8.29,0,0,1,.16,5.14,4.12,4.12,0,0,1-3.62,3.19,20.06,20.06,0,0,1-2.32.14C35.92,45.48,34.51,45.46,33.08,45.46Z"/><path class="cls-1" d="M25,41.22v4.23H21.46V34.07L22,34c1.79,0,3.58,0,5.36,0A6.31,6.31,0,0,1,29,34.3a2.77,2.77,0,0,1,2.08,2.56A5.69,5.69,0,0,1,31,38.61a3.31,3.31,0,0,1-3.34,2.6C26.81,41.26,26,41.22,25,41.22Z"/><path class="cls-1" d="M49,45.47l-.45,0H45.45V34.08h8.67v2.44H49v2h4.39v2.3H49Z"/><path class="cls-2" d="M36.59,42.92V36.64c.62,0,1.2,0,1.77.12a1.7,1.7,0,0,1,1.47,1.42,7.55,7.55,0,0,1,.05,3.21,1.63,1.63,0,0,1-1.52,1.43C37.78,42.88,37.2,42.89,36.59,42.92Z"/><path class="cls-2" d="M25,39V36.43a14.69,14.69,0,0,1,1.63,0,1.17,1.17,0,0,1,1.06,1.13,1.12,1.12,0,0,1-.93,1.23A15.81,15.81,0,0,1,25,39Z"/></g></g></svg>