<svg xmlns="http://www.w3.org/2000/svg" viewBox="0 0 75.58 75.58"><defs><style>.cls-1{fill:#2c5897;}.cls-2{fill:#fff;}.cls-3{fill:#2b5898;}</style></defs><title>icon-links-word</title><g id="Layer_2" data-name="Layer 2"><g id="Layer_1-2" data-name="Layer 1"><circle class="cls-1" cx="37.79" cy="37.79" r="37.79"/><path class="cls-2" d="M41.37,60,14.7,55.4V20.2l26.67-4.57Z"/><path class="cls-2" d="M56.7,31.55V29.72H42.52V26.91H56.68V25.07H42.52V20.71h9.14c1.51,0,3,0,4.52,0a36.82,36.82,0,0,1,4.56.11,7.26,7.26,0,0,1,.14,1V53.66c0,.32-.08.64-.12,1a3.73,3.73,0,0,1-.82.2c-5.73,0-11.46,0-17.2,0a1,1,0,0,1-.2-.07V50H56.7v-1.8H42.53V45.4H56.69V43.51H42.52V40.74H56.7v-1.8H42.53V36.18H56.69V34.29H42.48V31.55Z"/><path class="cls-3" d="M33.24,29.59H36c.06.53-3.13,15.26-3.52,16.16-.34,0-.69,0-1-.06-.65-.06-1.29-.14-1.94-.21L27.3,35.42h-.15l-2.21,9.87-2.75-.17L19.47,30.52h2.62l1.74,9.8h.09l2-10.17,3-.16,2.14,10.7h.1Z"/></g></g></svg>