<svg xmlns="http://www.w3.org/2000/svg" viewBox="0 0 75.58 75.58"><defs><style>.cls-1{fill:#fff;}.cls-2{fill:#1d1d1b;}</style></defs><title>icon-lock</title><g id="Layer_2" data-name="Layer 2"><g id="Layer_1-2" data-name="Layer 1"><circle cx="37.79" cy="37.79" r="37.79"/><path class="cls-1" d="M52.26,56.2H23.32a2.41,2.41,0,0,1-1.85-1.87,3.55,3.55,0,0,1-.18-1.18q0-9.63,0-19.25a3.35,3.35,0,0,1,1-2.56,2.05,2.05,0,0,1,1.53-.62.9.9,0,0,0,.56-.09.88.88,0,0,0,.08-.53c0-1,0-2.07,0-3.11a13.42,13.42,0,0,1,5.61-11,11.19,11.19,0,0,1,5.68-2.3,13.14,13.14,0,0,1,14.15,7.64,14.1,14.1,0,0,1,1.25,6.17c0,.89,0,1.78,0,2.67a.81.81,0,0,0,.08.48.72.72,0,0,0,.48.09,2.31,2.31,0,0,1,2.22,1.45,3.67,3.67,0,0,1,.38,1.69V53.19a3.65,3.65,0,0,1-.72,2.21A1.94,1.94,0,0,1,52.26,56.2Z"/><path class="cls-2" d="M45.52,30.81H30.08c0-.14,0-.26,0-.38,0-1.16,0-2.32,0-3.49a7.81,7.81,0,0,1,5.43-7.44,7.61,7.61,0,0,1,8.33,2.58,7.83,7.83,0,0,1,1.7,5Z"/><path class="cls-2" d="M40.41,43.52V49a3.26,3.26,0,0,1,0,.54,1.16,1.16,0,0,1-.87,1,2.05,2.05,0,0,1-.49.06H36.57a1.37,1.37,0,0,1-1-.32,1.3,1.3,0,0,1-.42-1c0-.88,0-1.77,0-2.66V43.53a3.67,3.67,0,0,1,.32-5.38,4,4,0,0,1,4.85.23A3.68,3.68,0,0,1,40.41,43.52Z"/></g></g></svg>