<svg xmlns="http://www.w3.org/2000/svg" viewBox="0 0 75.58 75.58"><defs><style>.cls-1{fill:#fff;}</style></defs><title>icon-info</title><g id="Layer_2" data-name="Layer 2"><g id="Layer_1-2" data-name="Layer 1"><circle cx="37.79" cy="37.79" r="37.79"/><path class="cls-1" d="M47.16,56.34c.1,1.78-.77,2.67-2.43,3.21-2.45.79-4.84,1.72-7.5,1.47-5.25-.5-7.63-3.54-6.48-8.71C31.69,48.05,33,43.89,34,39.65c1.07-4.49-.63-6-5.09-4.81l-1.34.38c.06-1.63.37-2.84,2.11-3.23,2.22-.5,4.4-1.49,6.63-1.61,6-.33,8.85,3.11,7.54,9-.83,3.76-2,7.44-3,11.17a15.52,15.52,0,0,0-.51,3.3c-.08,2.1.79,3,2.91,3A31.25,31.25,0,0,0,47.16,56.34Z"/><path class="cls-1" d="M48,20.07A5.86,5.86,0,0,1,36.32,20,5.85,5.85,0,0,1,48,20.07Z"/></g></g></svg>