<?xml version="1.0" encoding="utf-8"?>
<!-- Generator: Adobe Illustrator 22.1.0, SVG Export Plug-In . SVG Version: 6.00 Build 0)  -->
<svg version="1.1" id="Layer_1" xmlns="http://www.w3.org/2000/svg" xmlns:xlink="http://www.w3.org/1999/xlink" x="0px" y="0px"
	 viewBox="0 0 566.9 117.8" style="enable-background:new 0 0 566.9 117.8;" xml:space="preserve">
<style type="text/css">
	.st0{fill:none;stroke:#FFDA1A;stroke-width:0.24;}
	.st1{fill:none;stroke:#151414;stroke-width:0.24;}
	.st2{fill:#17170E;}
	.st3{fill:#FFFFFE;}
	.st4{fill:#DC3E37;}
	.st5{fill:#FFDA1A;}
	.st6{fill:#1A1919;}
	.st7{fill:#FFFFFF;}
</style>
<title>main-logo-homepage</title>
<g id="Layer_2_1_">
	<g id="Layer_1-2">
		<path class="st0" d="M95.8,65c-0.1,4.8-0.9,9.6-2.3,14.2c-1.2,3.8-3,7.5-5.4,10.7c-4.3,5.7-9.5,8.5-13,10.4
			c-0.3,0.2-2.3,1.2-12.2,6.1V65H95.8z M37.6,65v41.4c-9.9-4.9-11.9-6-12.2-6.1c-3.5-1.9-8.7-4.7-13-10.4C9.9,86.6,8.1,83,6.9,79.1
			C5.6,74.5,4.8,69.8,4.6,65H37.6z"/>
		<g>
			<path class="st1" d="M62.8,39.7h33V5.9h-33V39.7z M4.6,39.7h33V5.9h-33V39.7z"/>
			<path class="st2" d="M50.2,117.8l-1-0.5c-1.5-0.7-24.7-12.3-26-13C15.6,100.2,0,91.7,0,61.9V1.4h100.4v60.5
				c0,29.8-15.6,38.3-23.2,42.3c-1.4,0.8-24.7,12.3-26,13L50.2,117.8z"/>
		</g>
		<path class="st3" d="M60.4,42.1V3.5H40v38.6H2.2v19.8c0,0.2,0,0.4,0,0.6H40v47.7l10.2,5.1l0,0l10.2-5.1V62.5h37.8V42.1H60.4z"/>
		<path class="st4" d="M2.2,42.1H40V3.5H2.2V42.1z"/>
		<path class="st4" d="M60.4,42.1h37.8V3.5H60.4V42.1z"/>
		<path class="st4" d="M40,62.5H2.2c0.2,27.7,14.4,35.7,22,39.8c0.8,0.4,8.8,4.4,15.8,7.9L40,62.5z"/>
		<path class="st4" d="M60.4,62.5v47.7c7-3.5,15-7.5,15.8-7.9c7.6-4.1,21.8-12.2,22-39.8H60.4z"/>
		<path class="st2" d="M73.4,52.6l0.8-0.9l-1-1.2l-1,1.2l0.8,0.9c0,0.5,0,4.6-2.4,6c0.6,0.1,1.3,0.1,1.9,0c0.2,0.8,0.4,1.5,0.7,2.3
			c0.3-0.7,0.5-1.5,0.7-2.3c0.6,0.1,1.3,0.1,1.9,0C73.4,57.2,73.4,53.1,73.4,52.6z"/>
		<path class="st2" d="M79.6,45.7l0.8-0.9l-1-1.2l-1,1.2l0.8,0.9c0,0.5,0,4.6-2.4,6c0.6,0.1,1.3,0.1,1.9,0c0.2,0.8,0.4,1.5,0.7,2.3
			c0.3-0.7,0.5-1.5,0.7-2.3c0.6,0.1,1.3,0.1,1.9,0C79.5,50.2,79.6,46.2,79.6,45.7z"/>
		<path class="st2" d="M85.7,52.6l0.8-0.9l-1-1.2l-1,1.2l0.8,0.9c0,0.5,0,4.6-2.4,6c0.6,0.1,1.3,0.1,1.9,0c0.2,0.8,0.4,1.5,0.7,2.3
			c0.3-0.7,0.5-1.5,0.7-2.3c0.6,0.1,1.3,0.1,1.9,0C85.7,57.2,85.7,53.1,85.7,52.6z"/>
		<path class="st2" d="M91.9,45.7l0.8-0.9l-1-1.2l-1,1.2l0.8,0.9c0,0.5,0,4.6-2.4,6c0.6,0.1,1.3,0.1,1.9,0c0.2,0.8,0.4,1.5,0.7,2.3
			c0.3-0.7,0.5-1.5,0.7-2.3c0.6,0.1,1.3,0.1,1.9,0C91.8,50.2,91.9,46.2,91.9,45.7z"/>
		<path class="st2" d="M67.2,45.7l0.8-0.9l-1-1.2l-1,1.2l0.8,0.9c0,0.5,0,4.6-2.4,6c0.6,0.1,1.3,0.1,1.9,0c0.1,0.8,0.4,1.6,0.7,2.3
			c0.3-0.7,0.5-1.5,0.7-2.3c0.6,0.1,1.3,0.1,1.9,0C67.2,50.2,67.2,46.2,67.2,45.7z"/>
		<path class="st2" d="M15.1,52.6l0.8-0.9l-1-1.2l-1,1.2l0.8,0.9c0,0.5,0,4.6-2.4,6c0.6,0.1,1.3,0.1,1.9,0c0.2,0.8,0.4,1.5,0.7,2.3
			c0.3-0.7,0.5-1.5,0.7-2.3c0.6,0.1,1.3,0.1,1.9,0C15.1,57.2,15.1,53.1,15.1,52.6z"/>
		<path class="st2" d="M21.2,45.7l0.8-0.9l-1-1.2l-1,1.2l0.8,0.9c0,0.5,0,4.6-2.4,6c0.6,0.1,1.3,0.1,1.9,0c0.2,0.8,0.4,1.6,0.7,2.3
			c0.3-0.7,0.5-1.5,0.7-2.3c0.6,0.1,1.3,0.1,1.9,0C21.2,50.2,21.2,46.2,21.2,45.7z"/>
		<path class="st2" d="M27.4,52.6l0.8-0.9l-1-1.2l-1,1.2l0.8,0.9c0,0.5,0,4.6-2.4,6c0.6,0.1,1.3,0.1,1.9,0c0.2,0.8,0.4,1.5,0.7,2.3
			c0.3-0.7,0.5-1.5,0.7-2.3c0.6,0.1,1.3,0.1,1.9,0C27.4,57.2,27.4,53.1,27.4,52.6z"/>
		<path class="st2" d="M33.6,45.7l0.8-0.9l-1-1.2l-1,1.2l0.8,0.9c0,0.5,0,4.6-2.4,6c0.6,0.1,1.3,0.1,1.9,0c0.2,0.8,0.4,1.5,0.7,2.3
			c0.3-0.7,0.5-1.5,0.7-2.3c0.6,0.1,1.3,0.1,1.9,0C33.5,50.2,33.5,46.2,33.6,45.7z"/>
		<path class="st2" d="M8.9,45.7l0.8-0.9l-1-1.2l-1,1.2l0.8,0.9c0,0.5,0,4.6-2.4,6c0.6,0.1,1.3,0.1,1.9,0c0.2,0.8,0.4,1.5,0.7,2.3
			c0.3-0.7,0.5-1.5,0.7-2.3c0.6,0.1,1.3,0.1,1.9,0C8.9,50.2,8.9,46.2,8.9,45.7z"/>
		<path class="st2" d="M50.5,68.3l0.8-0.9l-1-1.2l-1,1.2l0.8,0.9c0,0.5,0,4.6-2.4,6c0.6,0.1,1.3,0.1,1.9,0c0.2,0.8,0.4,1.6,0.7,2.3
			c0.3-0.7,0.5-1.5,0.7-2.3c0.6,0.1,1.3,0.1,1.9,0C50.4,72.9,50.4,68.8,50.5,68.3z"/>
		<path class="st2" d="M50.5,89.2l0.8-0.9l-1-1.2l-1,1.2l0.8,0.9c0,0.5,0,4.6-2.4,6c0.6,0.1,1.3,0.1,1.9-0.1
			c0.2,0.8,0.4,1.6,0.7,2.3c0.3-0.7,0.5-1.5,0.7-2.3c0.6,0.1,1.3,0.1,1.9,0.1C50.4,93.8,50.4,89.7,50.5,89.2z"/>
		<path class="st2" d="M56.2,78.8l0.8-0.9l-1-1.2l-1,1.2l0.8,0.9c0,0.5,0,4.6-2.4,6c0.6,0.1,1.3,0.1,1.9,0c0.2,0.8,0.4,1.5,0.8,2.2
			c0.3-0.7,0.5-1.5,0.7-2.3c0.6,0.1,1.3,0.1,1.9,0C56.1,83.3,56.2,79.2,56.2,78.8z"/>
		<path class="st2" d="M44.7,78.8l0.8-0.9l-1-1.2l-1,1.2l0.8,0.9c0,0.5,0,4.6-2.4,6c0.6,0.1,1.3,0.1,1.9,0c0.2,0.8,0.4,1.5,0.7,2.2
			c0.3-0.7,0.5-1.5,0.7-2.3c0.6,0.1,1.3,0.1,1.9,0C44.6,83.3,44.7,79.2,44.7,78.8z"/>
		<path class="st2" d="M56.2,99.7l0.8-0.9l-1-1.2l-1,1.2l0.8,0.9c0,0.5,0,4.6-2.4,6c0.6,0.1,1.3,0.1,1.9,0c0.2,0.8,0.4,1.5,0.7,2.3
			c0.3-0.7,0.5-1.5,0.7-2.3c0.6,0.1,1.3,0.1,1.9,0C56.1,104.2,56.2,100.1,56.2,99.7z"/>
		<path class="st2" d="M44.7,99.7l0.8-0.9l-1-1.2l-1,1.2l0.8,0.9c0,0.5,0,4.6-2.4,6c0.6,0.1,1.3,0.1,1.9,0c0.2,0.8,0.4,1.5,0.7,2.3
			c0.3-0.7,0.5-1.5,0.7-2.3c0.6,0.1,1.3,0.1,1.9,0C44.6,104.2,44.7,100.1,44.7,99.7z"/>
		<path class="st2" d="M50.5,20.7l0.8-0.9l-1-1.2l-1,1.2l0.8,0.9c0,0.5,0,4.6-2.4,6c0.6,0.1,1.3,0.1,1.9-0.1
			c0.2,0.8,0.4,1.6,0.7,2.3c0.3-0.7,0.5-1.5,0.7-2.3c0.6,0.1,1.3,0.1,1.9,0.1C50.4,25.2,50.4,21.1,50.5,20.7z"/>
		<path class="st2" d="M56.2,10.2L57,9.3l-1-1.2l-1,1.2l0.8,0.9c0,0.5,0,4.6-2.4,6c0.6,0.1,1.3,0.1,1.9,0c0.2,0.8,0.4,1.6,0.7,2.3
			c0.3-0.7,0.5-1.5,0.7-2.3c0.6,0.1,1.3,0.1,1.9,0C56.1,14.8,56.2,10.7,56.2,10.2z"/>
		<path class="st2" d="M44.7,10.2l0.8-0.9l-1-1.2l-1,1.2l0.8,0.9c0,0.5,0,4.6-2.4,6c0.6,0.1,1.3,0.1,1.9,0c0.2,0.8,0.4,1.5,0.7,2.3
			c0.3-0.7,0.5-1.5,0.7-2.3c0.6,0.1,1.3,0.1,1.9,0C44.6,14.8,44.7,10.7,44.7,10.2z"/>
		<path class="st2" d="M56.2,31.1l0.8-0.9L56,29l-1,1.2l0.8,0.9c0,0.5,0,4.6-2.4,6c0.6,0.1,1.3,0.1,1.9,0c0.2,0.8,0.4,1.6,0.7,2.3
			c0.3-0.7,0.5-1.5,0.7-2.3c0.6,0.1,1.3,0.1,1.9,0C56.1,35.7,56.2,31.6,56.2,31.1z"/>
		<path class="st2" d="M44.7,31.1l0.8-0.9l-1-1.2l-1,1.2l0.8,0.9c0,0.5,0,4.6-2.4,6c0.6,0.1,1.3,0.1,1.9,0c0.2,0.8,0.4,1.5,0.7,2.3
			c0.3-0.7,0.5-1.5,0.7-2.3c0.6,0.1,1.3,0.1,1.9,0C44.6,35.7,44.7,31.6,44.7,31.1z"/>
		<path class="st2" d="M31.8,22.6l0.1,0.5c0.1,0.4,0.2,0.8,0.2,1c0.4,1.8,0.8,2.3,1.6,2.3c0.5,0,0.9-0.3,1-0.7L35,25
			c0-0.1,0.2-0.2,0.3-0.2c0.3,0,0.5,0.4,0.5,1.2c0,0.5,0.1,1.1,0.2,1.6c0.1,0.5,0.1,0.9,0.1,1.4c0,0.3-0.1,0.7-0.2,1
			c0.1,0.7,0.2,1.3,0.2,2c0,0.7-0.1,1.3-0.4,1.9C36,34.2,36,34.6,36,35c0,0.4,0,0.7-0.1,1.1c-0.1,0.4-0.1,0.7-0.2,1.1
			c0,0.1,0,0.3,0.1,0.4c0.1,0.1,0.1,0.3,0.1,0.4c0,0.1,0,0.2-0.1,0.2l-0.6-0.3l-0.7-0.4c-0.3-0.2-0.5-0.4-0.7-0.6
			c-0.6,0.6-0.8,0.7-2.4,1.1c-0.3,0.1-0.5,0.2-0.7,0.3c-0.1,0.1-0.3,0.2-0.4,0.2c-0.3,0-0.4-0.4-0.4-1.3c0-0.6,0-1.2,0.1-1.8
			c-0.4-0.2-0.7-0.3-1.1-0.3l-0.5,0.1h-0.1c-0.1,0-0.2-0.1-0.2-0.3c0-0.2,0.1-0.5,0.2-0.7l0.3-0.8c0.2-0.4,0.4-0.7,0.8-0.9
			c0.2-0.2,0.5-0.4,0.8-0.5l1.2-0.2c0.7-0.1,1.1-0.5,1.1-1s-0.3-0.8-1-1l-1.4-0.5c-0.4-0.2-0.9-0.4-1.3-0.6
			c-0.8-0.5-0.9-0.5-1.1-0.5s-0.4,0.2-0.4,0.6c-0.1,0.5,0.3,0.9,0.8,1c0,0,0.1,0,0.1,0c0.1,0,0.2,0,0.3-0.1c0.1-0.1,0.2-0.1,0.3-0.1
			c0.1,0,0.2,0.1,0.2,0.2V30L29,30.5c-0.2,0.7-0.5,1.4-1,1.9l-0.3,0.4c-0.3,1-0.9,1.9-1.7,2.5l-0.4,0.2c0,0-0.1,0.2-0.3,0.5
			c-0.2,0.3-0.4,0.5-0.6,0.8c-0.2,0.3-0.5,0.5-0.8,0.7c-0.2,0.2-0.5,0.4-0.6,0.6L23,38.7c-0.1,0.1-0.2,0.2-0.3,0.2
			c-0.3,0-0.5-0.3-0.7-0.8s-0.2-0.5-0.5-0.5c-0.2,0-0.4,0-0.6,0.1l-0.4,0.1h-1.2c-0.6,0-1.2,0.1-1.8,0.3c-0.1,0.1-0.2,0.1-0.3,0.1
			c-0.1,0-0.1,0-0.2-0.2c0-0.1-0.1-0.2-0.1-0.3c0.1-0.9,0.5-1.8,1-2.6c0.2-0.4,0.5-0.7,0.9-1c-0.1-0.5-0.4-1-0.9-1.1l-0.5-0.2
			c-0.1,0-0.1-0.1-0.1-0.2c0-0.2,0.3-0.4,0.7-0.6c0.5-0.3,1.1-0.5,1.8-0.5c0.6,0,1.2,0.3,1.6,0.7c0.9,0.7,1.1,0.8,1.5,0.8
			c0.7,0,1.3-0.6,1.3-1.3c-0.1-0.6-0.4-1.2-0.8-1.7c-0.7-0.7-1.1-1.6-1.2-2.6c0-0.5,0.1-1,0.4-1.5l0.3-0.5c0.1-0.1,0.1-0.2,0.1-0.3
			c0-0.2-0.2-0.4-0.6-0.4c-0.8,0.1-1.6,0.4-2.3,0.8c-0.4,0.2-0.6,0.5-0.6,0.7c0,0.1,0,0.2,0.1,0.2l0.4,0.2c0,0,0.1,0.1,0.1,0.1
			c0,0.1-0.1,0.2-0.1,0.2L19.3,28c-0.4,0.5-0.8,1-1.3,1.4c-0.1,0.1-0.2,0.2-0.3,0.3c0,0-0.1,0.2-0.2,0.5c-0.4,0.6-0.9,1.1-1.4,1.4
			c-0.2,0.1-0.3,0.2-0.4,0.4c-0.1,0.1-0.2,0.3-0.3,0.5c-0.1,0.2-0.3,0.5-0.4,0.7c-0.2,0.4-0.5,0.7-0.8,1L13.2,35
			c-0.4,0.6-0.7,1.3-0.9,2c-0.2,0.7-0.4,1.1-0.6,1.1s-0.1-0.1-0.2-0.2c-0.6-0.7-1.2-1.2-1.5-1.2c-0.1,0-0.3,0.1-0.4,0.2
			c-0.3,0.2-0.6,0.3-0.9,0.3l-1.2,0.2c-0.7,0.1-1.3,0.4-1.8,1c-0.1,0.1-0.2,0.2-0.3,0.2s-0.2-0.2-0.2-0.4v-0.3l0.2-0.9
			c0.1-0.7,0.3-1.4,0.6-2.1l0.6-1C6.9,33.9,7,33.7,7,33.5C6.9,32.7,6.1,32,5.2,32c-0.2,0-0.3-0.1-0.3-0.2s0.3-0.5,0.6-0.8
			c0.6-0.5,1.3-0.7,2-0.8c0.5,0.1,1,0.2,1.5,0.4l0.7,0.3c0.2,0.1,0.5,0.2,0.7,0.2c0.7,0,1.5-0.7,2.4-2.2c0.3-0.5,0.5-1.1,0.6-1.6
			c0-0.8-0.4-1.3-1-1.3c-0.5,0-1,0.2-1.4,0.6c-0.3,0.3-0.5,0.6-0.5,1V28c0,0.3-0.1,0.5-0.3,0.5s-0.7-0.4-2-2C7.4,25.8,7,24.8,7,23.7
			c-1.1-1.4-1.4-2-1.4-3V20c-0.6-0.6-1-1.4-1-2.2c0-0.3,0.2-0.6,0.4-0.8c-0.3-0.4-0.5-0.8-0.6-1.2l-0.2-0.7
			c-0.1-0.4-0.3-0.8-0.5-1.2c-0.3-0.4-0.3-0.5-0.3-0.6c0-0.4,0.2-0.5,1.4-0.8c0-0.2-0.1-0.5-0.1-0.7c0-0.3,0-0.5,0.1-0.8L5,9.8
			c0.1-0.3,0.1-0.7,0.1-1c0-0.3-0.1-0.7-0.2-1C4.8,7.5,4.7,7.3,4.6,7C4.5,6.9,4.4,6.7,4.4,6.6c0-0.1,0.1-0.2,0.2-0.2
			c0.7,0.3,1.4,0.7,2,1.2c1.8,1.5,2.2,2.1,2.5,4l0.1,0.6c0.8,0.5,1.3,1.3,1.4,2.3c0,0.7-0.2,1.4-0.6,2.1l-0.6,1
			c-0.2,0.3-0.3,0.7-0.3,1c0,0.7,0.2,1.3,0.6,1.9c0.5,0.9,0.9,1.2,1.4,1.2c0.9,0,1.6-1.5,1.6-3.1v-0.8c0-0.4,0-0.7,0.1-1.1
			c0.1-0.5,0.1-0.8,0.1-0.9v-0.8v-0.5c0-0.2-0.1-0.5-0.3-0.6l-0.7-0.8c-0.8-0.8-1.4-1.8-1.6-2.9c0-0.9,0.7-1.7,1.6-1.7
			c0,0,0,0,0.1,0c0.2,0,0.5,0,0.7,0.1V8.4C12.5,7,12.8,6,13.2,6h0.1l0.6,0.5L14.6,7l0.2,0.2c0-0.4,0-0.4,0.4-0.9
			c0.1-0.1,0.2-0.3,0.4-0.6L16,5.2l0.2-0.3c0.1-0.2,0.2-0.2,0.3-0.2s0.2,0.1,0.3,0.5s0.1,0.3,0.7,0.8c0.1,0.1,0.3,0.3,0.4,0.4
			C17.9,6.5,17.9,6.8,18,7l0.1,0.3c0.2-0.2,0.4-0.4,0.6-0.6l0.5-0.3c0.1-0.1,0.2-0.1,0.4-0.2c0,0,0.1,0.1,0.2,0.2
			c0.1,0.2,0.2,0.3,0.2,0.5c0.3,0.3,0.4,0.7,0.5,1.1v0.7c0.9,0.2,1.6,1.1,1.5,2c-0.1,1-0.5,2-1.3,2.7c-0.5,0.6-0.6,0.8-0.6,1.2
			c0,2.4,1.6,3.7,4.6,3.8h2.1c1.2,0,2.4,0.2,3.5,0.6c0.8,0.3,1.6,0.5,2.4,0.6c0.1,0,0.3,0,0.4-0.1c0.1-0.1,0.2-0.2,0.2-0.3
			c0-0.5-0.8-0.8-3.4-1.5c-5.3-1.5-7.5-3.6-7.5-7.1c0.1-2.7,2.3-4.9,5-4.8c0,0,0.1,0,0.1,0c1.1,0,2.2,0.2,3.2,0.5L32,6.9
			C32.2,7,32.5,7,32.7,7c0.5,0,0.7-0.4,0.7-1.1c0-0.4,0.1-0.5,0.4-0.5s0.9,0.5,1.5,1.2c0.5,0.6,0.8,1.3,0.9,2.1
			c0,0.7-0.4,1.4-1.1,1.7c-0.6,1-1.6,1.6-2.8,1.6c-0.9,0-2.2-0.5-4.4-1.8c-0.5-0.3-1-0.5-1.5-0.6c-0.5-0.1-0.9,0.3-0.9,0.7
			c0,0,0,0.1,0,0.1c0,0.5,0.4,0.8,1.3,1.1c0.9,0.2,1.6,0.6,2.3,1.2c1.2,0.1,2.4,0.6,3.4,1.4c2.8,0.9,4.5,2.8,4.5,5
			c0.1,1.9-1.3,3.5-3.2,3.7c-0.1,0-0.2,0-0.3,0C32.8,22.8,32.3,22.7,31.8,22.6z"/>
		<path class="st5" d="M35,36.6c-0.1-0.3-0.1-0.5-0.1-0.8v-0.3l0.1-0.5v-0.4c0-0.3,0-0.7-0.2-1l-0.4-0.5c-0.1-0.2-0.2-0.4-0.3-0.6
			c0-0.1-0.1-0.2-0.1-0.3c0-0.1,0.1-0.2,0.2-0.2c0,0,0,0,0,0c0.1,0,0.1,0,0.4,0.2c0.1,0.1,0.2,0.1,0.3,0.1c0.2,0,0.3-0.3,0.3-0.9
			c0-0.4,0-0.8-0.2-1.1l-0.5-0.5l-0.4-0.4C34,29.4,34,29.3,34,29.2c0-0.1,0.1-0.2,0.2-0.2c0,0,0,0,0,0c0.2,0,0.5,0.1,0.7,0.2h0.2
			c0.1,0,0.2-0.1,0.2-0.3v-0.1l-0.1-0.7L35,27.4c-0.1-0.2-0.1-0.3-0.2-0.3h0l-0.8,0.1h-0.1c-1.2-0.1-2.2-0.9-2.5-2l-0.6-2.1
			c-0.3-0.8-0.8-1.5-1.5-2c-0.2-0.2-0.4-0.3-0.6-0.4l-0.6-0.1c-0.1,0-0.2-0.1-0.2-0.2c0-0.1,0.1-0.2,0.4-0.2l1.1,0.1
			c0.6,0.1,1.2,0.2,1.7,0.5c0.7,0.3,1.4,0.4,2.2,0.5c1.2,0.2,2.4-0.7,2.5-1.9c0-0.1,0-0.3,0-0.4c0-1.1-0.5-2.1-1.3-2.8
			c-0.3-0.3-0.7-0.5-1.1-0.7c-0.1,0-0.2,0.1-0.2,0.2c0,0,0,0,0,0v0.4l0,0c0,0.2-0.1,0.3-0.2,0.3s-0.3-0.2-0.5-0.6
			c-0.4-1.1-1.4-1.9-2.6-2c-0.2,0-0.3,0.1-0.3,0.2c0,0.2,0.1,0.3,0.2,0.5l0.2,0.6c0.1,0.1,0.1,0.2,0.1,0.3c0,0-0.1,0.1-0.1,0.1
			c-0.2,0-0.4-0.1-0.5-0.3l-0.5-0.5L28.4,14c-0.3-0.5-0.8-0.9-1.3-1.1l-0.8-0.4c-0.1-0.1-0.3-0.1-0.4-0.1c-0.1,0-0.2,0-0.2,0.2
			c0,0.1,0,0.2,0.1,0.4c0.2,0.2,0.3,0.4,0.3,0.6c0,0.1-0.1,0.2-0.2,0.2c0,0,0,0,0,0c-0.2,0-0.8-0.5-1.2-1.2
			c-0.4-0.5-0.6-1.2-0.6-1.8c0-1.3,1-2.4,2.2-2.4c0,0,0.1,0,0.1,0c0.9,0.1,1.7,0.3,2.4,0.8l1.5,0.9c0.5,0.3,1.1,0.5,1.8,0.6
			c0.3,0,0.6-0.1,0.9-0.2c0.1,0,0.3-0.1,0.4-0.2c0.1-0.1,0.2-0.1,0.2-0.2s0-0.1-0.1-0.1l-0.2-0.1l-0.7-0.1c-0.3-0.1-0.6-0.2-0.9-0.3
			c-0.6-0.2-1.1-0.5-1.6-0.8c-0.3-0.2-0.7-0.4-1-0.6C29,8,28.8,7.8,28.8,7.7s0-0.1,0.1-0.1c0.1,0,0.2,0.1,0.3,0.1
			c0.3,0.3,0.8,0.4,1.2,0.5l1.4,0.5c0.7,0.3,1.4,0.4,2.1,0.5c0.6,0,1.1-0.5,1.1-1c0,0,0,0,0,0c-0.1-0.5-0.2-1-0.6-1.4
			c-0.1-0.1-0.2-0.2-0.2-0.2s-0.2,0.1-0.2,0.3V7l0.1,0.4c0,0.4-0.3,0.7-0.6,0.7c-0.2,0-0.3,0-0.5-0.1l-2-0.7
			c-1.1-0.4-2.3-0.7-3.4-0.7c-2.3-0.2-4.2,1.6-4.4,3.8c0,0.1,0,0.1,0,0.2c0,2.6,1.8,4.2,6.2,5.7s5,1.9,5,3c-0.1,0.7-0.7,1.2-1.4,1.2
			c-0.3,0-0.5,0-0.8-0.1L30,20c-1.3-0.3-2.7-0.5-4-0.5c-3.1,0-4.9,0.5-6.4,2C19.4,21.8,19,22,18.7,22h-0.2H18l0,0
			c-0.4,0-0.7,0.2-0.9,0.6l-0.5,0.9c-0.1,0.1-0.2,0.2-0.4,0.2c-0.3,0-0.5-0.2-0.8-1c-0.1-0.4-0.4-0.7-0.7-1L14,21
			c-0.1-0.1-0.1-0.1-0.2-0.2c0-0.1,0.1-0.2,0.1-0.3c0.2-0.3,0.4-0.5,0.4-0.8c0.1-0.4,0.1-0.5,0.3-0.5s0.3,0.2,0.3,0.9
			c0,0.3,0.1,0.6,0.3,0.9l0.4,0.8c0.1,0.1,0.2,0.2,0.3,0.2c0.3,0,0.7-0.8,0.9-1.6s0.2-0.9,0.3-0.9c0.1,0,0.1,0,0.1,0.1
			c0,0,0.1,0.2,0.3,0.6c0.1,0.2,0.2,0.4,0.4,0.5c0.1,0.1,0.2,0.2,0.4,0.2l0,0c0.3,0,0.4-0.2,0.4-0.8v-0.3l-0.1-0.5l0-0.3
			c0-0.2,0.1-0.3,0.2-0.3c0.1,0,0.2,0.1,0.2,0.1l0.3,0.3c0.2,0.2,0.4,0.3,0.6,0.3c0.3,0,0.4-0.1,0.4-0.3c0-0.3-0.1-0.5-0.3-0.7
			L20,17.9c-0.3-0.5-0.5-0.7-0.7-0.7H19l-0.4,0.2c-0.1,0-0.2,0.1-0.2,0.1c-0.1,0-0.1,0-0.1-0.1c0.1-0.5,0.3-0.9,0.5-1.3
			c0.3-0.8,0.5-1.7,0.5-2.5c0.1-1.7,0.3-2.8,0.6-2.8s0.2,0.1,0.2,0.5v0.4V12c0,0.3,0.1,0.5,0.1,0.5c0.3,0,0.6-0.4,0.9-1.1
			c0.1-0.2,0.1-0.4,0.2-0.6v-0.1l-0.7-1.2l-0.6-0.2c-0.1,0-0.2-0.1-0.2-0.1V8.4L19.6,8l-0.1-0.3l-0.2-0.4c-0.5,0.2-0.9,0.6-1.3,1
			c-0.2,0.3-0.4,0.5-0.5,0.5c-0.1,0-0.2-0.1-0.2-0.2c0-0.2,0-0.4,0.1-0.5V7.9c0-0.8-0.5-1.4-1.1-1.8l-0.2,0.3l-0.2,0.3l-0.4,0.4
			c-0.2,0.2-0.3,0.4-0.3,0.6c0,0.1-0.1,0.2-0.1,0.4v0.2c0,0.3,0,0.3-0.1,0.3h-0.1l-0.2-0.3L14.3,8l-0.5-0.3l-0.3-0.2l-0.1,0.3
			c-0.1,0.2-0.1,0.3-0.2,0.5v0.5v0.5v0.1c0,0.3-0.1,0.4-0.2,0.4c-0.1,0-0.3-0.1-0.4-0.2c-0.1-0.1-0.3-0.1-0.5-0.1
			c-0.4,0-0.8,0.3-0.8,0.8c0,0,0,0.1,0,0.1c0,0.6,0.2,1.2,0.5,1.7l0.4,0.5c0.1,0.1,0.3,0.3,0.3,0.2l0.1-0.7l-0.1-0.5v-0.2
			c0-0.2,0.1-0.3,0.2-0.3s0.3,0.2,0.4,0.7l0.2,1.2l0.3,1.5c0.1,0.4,0.2,0.8,0.3,1.2c0.1,0.4,0.3,0.8,0.5,1.1
			c0.4,0.5,0.4,0.5,0.4,0.6c0,0.1-0.1,0.1-0.1,0.1c-0.1,0-0.2,0-0.3-0.1c-0.1-0.1-0.2-0.1-0.4-0.1h-0.2c-0.5,0-0.6,0.4-0.6,2.6
			c0,1.3,0.2,2.7,0.6,3.9l0.7,1.7c0.1,0.3,0.2,0.5,0.2,0.8c0,2.3-3.1,6-6.5,7.7c-1.1,0.4-1.8,1.5-1.8,2.6V37
			c0.3-0.2,0.7-0.4,1.1-0.5c1-0.2,1.1-0.4,1.3-0.8l0.1-0.4c0-0.2,0.1-0.2,0.9-0.6c0.2-0.1,0.4-0.2,0.5-0.4c0.2-0.3,0.3-0.4,0.4-0.4
			s0.1,0,0.1,0.1v0.1L10.5,35v0.2c0,0.7,0.4,1.3,1.1,1.6c0-0.5,0.2-0.9,0.4-1.3l0.6-0.9c0.2-0.4,0.3-0.9,0.3-1.4c0-0.3,0-0.7-0.1-1
			v-0.2c0-0.2,0.1-0.3,0.2-0.3s0.2,0,0.2,0.1l0.1,0.6c0,0.1,0.2,0.2,0.3,0.2c0.3,0,0.7-0.4,1.1-1.1c0.2-0.3,0.2-0.6,0.2-0.9L15,30.2
			l-0.1-0.5v-0.1c0-0.2,0.1-0.4,0.3-0.4s0.1,0,0.1,0.1l0.2,0.7c0,0.2,0.2,0.4,0.4,0.4c0.2,0,0.6-0.4,0.8-0.8
			c0.2-0.4,0.3-0.9,0.3-1.3c0-0.7,0.1-0.9,0.3-0.9c0.1,0,0.1,0,0.2,0.1l0.1,0.4c0,0.2,0.1,0.3,0.2,0.3s0.5-0.4,0.7-0.8
			c0.1-0.1,0.1-0.2,0.1-0.3c0-0.1-0.1-0.3-0.3-0.4S18,26.4,18,26c0-0.4,0.1-0.8,0.4-1.1c0.2-0.3,0.3-0.5,0.4-0.8
			c0.4-0.8,0.5-1,0.7-1c0.1,0,0.2,0.1,0.2,0.3c0,0.1,0,0.2-0.1,0.3c-0.1,0.1-0.1,0.2-0.1,0.4c0,0.1,0.1,0.2,0.2,0.2c0,0,0,0,0,0
			c0.2,0,0.4-0.1,0.6-0.2c0.1,0,0.4-0.2,0.9-0.4l1.1-0.4c0.2-0.1,0.4-0.1,0.6-0.1c0.2,0,0.4,0,0.6,0.1c0.2,0.1,0.5,0.1,0.7,0.1
			c0.3,0,0.5-0.2,0.5-0.5c-0.1-0.4-0.2-0.7-0.5-1c-0.1-0.1-0.1-0.2-0.2-0.3v-0.1c0-0.1,0.1-0.1,0.2-0.1c0.2,0,0.7,0.5,1.2,1.2
			c2.8,4.3,3.7,5.4,5.6,6c1.9,0.6,2.4,1,2.4,2.1c-0.1,0.8-0.4,1.6-1,2.3c-1.4,2-1.7,2.7-1.7,4v0.2L31,37c0.2-0.1,0.3-0.2,0.5-0.2
			l0.8-0.2c0.3-0.1,0.5-0.4,0.5-0.7v-0.1l-0.1-0.7v-0.1c0-0.3,0.1-0.5,0.3-0.7c0,0,0.1-0.1,0.2-0.1c0.1,0,0.2,0.1,0.2,0.2l0.5,1.1
			C34.1,36.1,34.5,36.5,35,36.6z"/>
		<path class="st5" d="M9.1,13.4c-0.2,0-0.4,0.2-0.4,0.6l-0.1,0.6c0,0.3-0.1,0.5-0.1,0.8c0,0.4,0.1,0.8,0.3,0.8s0.5-0.4,0.7-0.8
			c0.1-0.2,0.1-0.5,0.1-0.8c0-0.2-0.1-0.5-0.1-0.7C9.5,13.6,9.3,13.4,9.1,13.4z"/>
		<path class="st5" d="M6.5,8.7L7,9.1c0.8,1,1.2,2.4,1,3.7c0,0.4,0,0.6-0.1,1.6c0,0.5-0.1,1-0.1,1.3c0,4,1.3,7,3,7
			c0.5,0,0.9-0.3,1.4-1c0.1-0.1,0.2-0.2,0.3-0.2s0.1,0.1,0.2,0.3l0.1,0.7l0.1,0.6l0.1,0.7l0.1,0.6v0.1c0,0.1-0.1,0.3-0.2,0.3
			l-0.6,0.1c-0.3,0.1-0.6,0.2-0.9,0.4c-0.3,0.2-0.6,0.4-0.8,0.6l-0.4,0.7c0,0.1-0.1,0.1-0.2,0.2c-0.2,0-0.5-0.3-0.8-0.9
			c-0.2-0.3-0.4-0.7-0.5-1c0-0.1,0.1-0.1,0.3-0.1H9h0.4h0.3H10c0.1,0,0.2-0.1,0.2-0.2c0-0.1-0.1-0.2-0.1-0.2l-1.5-0.7
			c-0.5-0.2-0.9-0.6-1.1-1c-0.3-0.4-0.5-0.9-0.6-1.4c0-0.2,0.1-0.3,0.3-0.3c0.1,0,0.2,0,0.2,0.1C7.5,20.9,7.6,21,7.8,21
			C7.9,21,8,20.9,8,20.8c0-0.1-0.1-0.2-0.3-0.4c-1-0.6-1.7-1.6-1.9-2.7c0-0.2,0.1-0.4,0.2-0.4h0.2l0.4,0.1l0,0c0.1,0,0.3,0,0.3-0.2
			c0,0,0,0,0,0c0-0.1-0.1-0.2-0.3-0.3l-0.5-0.3c-0.2-0.1-0.3-0.3-0.4-0.5l-0.5-1l-0.4-0.9l-0.3-0.6c-0.1-0.1-0.1-0.2-0.2-0.2
			c0.3-0.2,0.6-0.3,1-0.3c0.4,0,0.7,0.3,1,1.1c0.2,0.5,0.4,0.8,0.5,0.8s0.1-0.1,0.1-0.4c0-0.3,0-0.6-0.1-0.9
			c-0.1-0.2-0.1-0.5-0.1-0.7l-0.1-0.4l-0.4-0.2c-0.1-0.1-0.2-0.2-0.2-0.3c-0.1-0.2-0.2-0.5-0.2-0.7c0-0.2,0-0.4,0.1-0.6
			c0.2-0.7,0.4-1.4,0.4-2.1V8.4L6.5,8.7z"/>
		<path class="st5" d="M10.3,31.8c-0.3,0-0.6-0.1-0.9-0.2l-0.6-0.3C8.4,31.1,8,31,7.6,31c-0.5,0-1,0.2-1.3,0.5l0.3,0.2l0.6,0.4
			l0.6,0.5c0.2,0.1,0.3,0.2,0.5,0.2C9.1,32.8,9.8,32.4,10.3,31.8z"/>
		<path class="st5" d="M22.7,37.7c0.1-0.3,0.3-0.6,0.6-0.8c0.9-0.8,1.3-1.3,1.3-1.8v-0.7c0-0.4,0.1-0.5,0.3-0.5c0.1,0,0.2,0,0.2,0.1
			l0.2,0.4c0.1,0.1,0.2,0.2,0.3,0.2c0.2-0.1,0.4-0.2,0.4-0.4l0.3-0.5c0.1-0.2,0.2-0.4,0.2-0.6c0-0.1,0-0.3-0.1-0.4l-0.2-0.5
			c-0.1-0.2-0.1-0.3-0.1-0.5c0-0.2,0.1-0.3,0.3-0.3c0.1,0,0.2,0,0.2,0.1l0.2,0.3c0.1,0.1,0.2,0.1,0.2,0.1c0.2,0,0.3-0.1,0.3-0.3
			l0.3-0.5c0-0.1,0.1-0.2,0.1-0.3c0-0.1-0.1-0.2-0.3-0.3l-0.4-0.2c-0.7-0.5-1.1-1.2-1-2.1c0-0.1,0-0.2,0.1-0.3l0.2-0.5
			c0.1-0.2,0.1-0.3,0.1-0.5c0-0.4-0.1-0.7-0.3-1c-0.3-0.4-0.4-0.6-0.4-0.7c-0.2-0.5-0.3-0.6-0.4-0.6h-0.2L25,24.6l-0.4,0.2l-0.4,0.5
			l-0.5,0.2c-0.3,0.3-0.5,0.7-0.5,1.2c0,0.8,0.1,1.1,1.2,3c0.4,0.5,0.6,1.2,0.7,1.8c0,1.3-1.2,2.3-3.5,2.8l-1.5,0.3
			c-1.1,0.2-1.9,1.2-2,2.3c0.4-0.2,0.9-0.3,1.4-0.3h0.5c0.4,0,0.5,0,0.8-0.4c0.3-0.4,0.6-0.7,1.1-0.9l0.5-0.2l0.4-0.2h0.1
			c0.1,0,0.2,0,0.2,0.1c0,0.2-0.2,0.4-0.3,0.5c-0.3,0.3-0.5,0.8-0.5,1.2C22.3,37.2,22.5,37.4,22.7,37.7z"/>
		<path class="st5" d="M18.6,32.7c0.4,0.2,0.7,0.5,1,0.9C19.9,34,20,34,20.3,34c0.2,0,0.3,0,0.5-0.1l0.3-0.1
			c0.5-0.1,0.7-0.2,0.7-0.3c0-0.1-0.1-0.2-0.2-0.3L21.2,33l-0.4-0.3c-0.3-0.2-0.7-0.4-1.1-0.4C19.4,32.3,19,32.4,18.6,32.7z"/>
		<path class="st5" d="M29,34.4h0.2h0.3h0.3h0.1c0.7,0,1.3-0.5,1.4-1.2c0-0.2-0.2-0.3-0.6-0.3C29.9,32.8,29.4,33.3,29,34.4z"/>
		<path class="st2" d="M17.1,12.3c0,0.3,0.2,0.5,0.3,0.5s0.3-0.4,0.6-0.9c0.4-0.6,0.7-1.2,0.9-1.9c0-0.1-0.1-0.2-0.2-0.2l0,0
			l-0.4,0.3c-0.3,0.3-0.7,0.5-1.1,0.6c-0.4,0.1-0.5,0.3-0.5,0.6v0.3l0.2,0.4L17.1,12.3z"/>
		<path class="st2" d="M15.1,10.6l0.5,0.3c0.1,0.1,0.2,0.2,0.2,0.3v0.2c0,0.2,0,0.5,0,0.7c0,0.3-0.2,0.6-0.5,0.6c0,0-0.1,0-0.1,0
			c-0.1,0,0-0.1-0.3-0.4l-0.7-0.8c-0.3-0.4-0.5-0.9-0.5-1.4v0c0-0.2,0-0.2,0.2-0.2c0.1,0,0.3,0.1,0.4,0.2L15.1,10.6z"/>
		<path class="st2" d="M16.4,14h-0.2h-0.4l-0.4-0.2c-0.1-0.1-0.3-0.1-0.5-0.1c-0.3,0-0.5,0.2-0.5,0.4c0.1,0.5,0.2,1,0.4,1.4l0.4,1
			c0.4,0.9,0.7,1.3,1.2,1.3s0.5-0.4,0.8-1.1c0.6-1.6,1-1.9,1-2.4c0-0.4-0.1-0.5-0.4-0.5l-0.3-0.1L17,14L16.4,14z"/>
		<path class="st5" d="M16.3,14.9h-0.4c-0.1,0-0.1,0-0.2,0.1l-0.1,0.2l0.2,0.8l0.1,0.7c0.1,0.4,0.2,0.5,0.5,0.5s0.5-0.2,0.5-0.6
			l0.1-0.7c0-0.5,0.1-0.7,0.1-0.7c0-0.1,0-0.1-0.1-0.2c0,0-0.1-0.1-0.2-0.1l0,0L16.3,14.9z"/>
		<path class="st2" d="M91.6,22.6l0.1,0.5c0.1,0.4,0.2,0.8,0.3,1c0.4,1.8,0.8,2.3,1.6,2.3c0.5,0,0.9-0.3,1.1-0.7l0.2-0.6
			c0-0.1,0.2-0.2,0.3-0.2c0.3,0,0.5,0.4,0.6,1.2c0,0.3,0.1,0.8,0.2,1.6c0.1,0.5,0.1,1,0.1,1.5c0,0.3-0.1,0.6-0.2,0.9l0.1,0.4
			c0.1,0.4,0.1,0.8,0.1,1.2c0.1,0.8,0,1.6-0.4,2.3c0.1,0.4,0.2,0.8,0.2,1.2c0,0.4-0.1,0.8-0.1,1.1l-0.1,1v0.6
			c0.1,0.1,0.1,0.3,0.1,0.4c0,0.1-0.1,0.2-0.1,0.2L95,37.9l-0.7-0.4c-0.3-0.2-0.5-0.4-0.7-0.6c-0.4,0.4-0.9,0.7-1.4,0.8
			c-0.6,0.1-1.1,0.3-1.7,0.6c-0.1,0.1-0.3,0.2-0.4,0.2c-0.2,0-0.4-0.5-0.4-1.2c-0.1-0.7,0-1.4,0.2-2c-0.4-0.2-0.8-0.2-1.2-0.3
			c-0.2,0-0.3,0-0.5,0.1H88c-0.1,0-0.1-0.1-0.1-0.3c0.1-0.5,0.2-1,0.5-1.5c0.3-0.7,0.9-1.2,1.6-1.4l1.2-0.2c0.7-0.1,1.1-0.5,1.1-1
			s-0.3-0.8-1-1l-1.3-0.5c-0.4-0.2-0.9-0.4-1.3-0.6l-0.7-0.4c-0.1-0.1-0.2-0.1-0.3-0.1c-0.3,0-0.5,0.2-0.5,0.5c0,0.5,0.4,1,0.9,1
			c0.1,0,0.2,0,0.3-0.1c0.1-0.1,0.2-0.1,0.3-0.1c0.2,0,0.2,0.1,0.2,0.3c-0.1,0.7-0.3,1.4-0.7,2l-0.4,0.5l-0.3,0.4
			c-0.3,1-0.9,1.9-1.7,2.5c-0.1,0.1-0.2,0.2-0.3,0.2c0,0-0.1,0.2-0.3,0.5c-0.2,0.3-0.4,0.5-0.6,0.8c-0.2,0.3-0.5,0.5-0.8,0.7
			c-0.2,0.2-0.5,0.4-0.6,0.6l-0.3,0.5c0,0.1-0.1,0.2-0.2,0.2c-0.3,0-0.6-0.3-0.7-0.8s-0.2-0.5-0.5-0.5c-0.2,0-0.4,0-0.6,0.1
			l-0.4,0.1h-1.1c-0.6,0-1.2,0.1-1.8,0.3c-0.1,0.1-0.2,0.1-0.3,0.1c-0.2,0-0.2-0.2-0.2-0.5c0.2-1.4,0.8-2.6,1.8-3.5
			c-0.1-0.5-0.4-0.9-0.9-1.1l-0.6-0.2c-0.1,0-0.1-0.1-0.1-0.2c0-0.2,0.2-0.4,0.7-0.7c0.5-0.3,1.1-0.5,1.7-0.5c0.6,0,1.2,0.3,1.7,0.7
			c0.9,0.7,1.1,0.8,1.5,0.8c0.7,0,1.2-0.6,1.3-1.2c-0.1-0.6-0.4-1.2-0.8-1.7c-0.7-0.7-1.1-1.7-1.2-2.7c0-0.7,0.3-1.3,0.7-1.9
			c0.1-0.1,0.1-0.2,0.1-0.4c0-0.2-0.3-0.3-0.6-0.3c-0.5,0-0.9,0.2-1.3,0.4c-1,0.4-1.5,0.9-1.5,1.1c0,0.1,0.1,0.2,0.2,0.3l0.3,0.2
			c0,0,0.1,0.1,0.1,0.1c0,0.1-0.1,0.2-0.1,0.2c-0.1,0.1-0.3,0.4-0.7,0.8c-0.4,0.5-0.8,1-1.3,1.4c-0.1,0.1-0.2,0.2-0.3,0.3l-0.3,0.5
			c-0.4,0.6-0.8,1.1-1.4,1.4c-0.2,0.1-0.3,0.2-0.4,0.4c-0.1,0.1-0.2,0.3-0.3,0.4c-0.3,0.6-0.7,1.2-1.2,1.7L73,35
			c-0.4,0.6-0.7,1.3-0.9,2c-0.3,0.8-0.4,1.1-0.6,1.1s-0.2-0.1-0.2-0.2c-0.6-0.7-1.2-1.2-1.5-1.2c-0.1,0-0.3,0.1-0.4,0.2
			c-0.3,0.2-0.6,0.3-0.9,0.3l-1.2,0.2c-0.7,0.1-1.4,0.4-1.8,1c-0.1,0.1-0.2,0.2-0.3,0.2s-0.2-0.2-0.2-0.4V38c0,0,0.1-0.3,0.2-0.9
			c0.1-0.7,0.3-1.4,0.6-2.1l0.6-1c0.1-0.2,0.2-0.3,0.2-0.5c0-0.7-0.7-1.3-1.7-1.5c-0.2,0-0.3-0.1-0.3-0.2s0.2-0.4,0.7-0.7
			c0.6-0.5,1.3-0.8,2-0.8c0.5,0,1,0.2,1.5,0.4l0.7,0.3c0.2,0.1,0.5,0.2,0.7,0.2c0.7,0,1.5-0.7,2.4-2.2c0.3-0.5,0.5-1.1,0.6-1.7
			c0-0.8-0.4-1.3-1-1.3c-0.5,0-1,0.2-1.4,0.6c-0.3,0.3-0.5,0.6-0.5,1v0.3V28c0,0.3-0.1,0.4-0.3,0.4s-0.5-0.2-1.1-0.9l-0.9-1
			c-0.8-0.7-1.2-1.7-1.2-2.8c-1.1-1.4-1.4-2.1-1.4-3V20c-0.6-0.6-1-1.4-0.9-2.2c0-0.3,0-0.6,0.2-0.9c-0.3-0.4-0.5-0.8-0.6-1.2
			L64,15.1c-0.1-0.4-0.3-0.8-0.5-1.2c-0.3-0.4-0.3-0.5-0.3-0.6c0-0.3,0.3-0.6,1.1-0.8l0.2-0.1c0-0.2-0.1-0.5-0.1-0.7
			c0-0.3,0-0.5,0.1-0.8l0.2-1.2c0.1-0.3,0.1-0.7,0.1-1.1c0-0.3-0.1-0.7-0.2-1c-0.1-0.3-0.2-0.5-0.3-0.8c-0.1-0.1-0.2-0.3-0.2-0.4
			c0-0.1,0.1-0.2,0.3-0.2c0.1,0,0.2,0,0.3,0.1C66,7.2,67,8,67.9,9c0.7,0.8,1,1.5,1.1,3.3c0.9,0.5,1.4,1.4,1.3,2.4
			c0,0.7-0.2,1.3-0.6,1.9c-0.4,0.6-0.6,0.9-0.6,1c-0.2,0.3-0.3,0.7-0.3,1.1c0,0.7,0.2,1.3,0.6,1.9c0.5,0.9,0.9,1.2,1.4,1.2
			c0.8,0,1.6-1.5,1.6-3v-1.2l0.1-0.8l0.1-0.9l0.1-0.8v-0.4c0-0.3-0.1-0.4-1.1-1.5c-0.9-0.8-1.5-1.9-1.6-3.1c0-0.9,0.7-1.6,1.6-1.6
			c0.2,0,0.5,0,0.7,0.1V8.3V7.6l0.2-0.8C72.7,6.1,72.7,6,73,6h0.2l0.6,0.5L74.4,7l0.2,0.2c0-0.3,0.2-0.7,0.4-0.9
			c0.2-0.2,0.3-0.4,0.4-0.6l0.3-0.5L76,4.9c0.1-0.2,0.2-0.2,0.3-0.2s0.2,0.1,0.2,0.5c0.1,0.2,0.2,0.3,0.3,0.4l0.4,0.3
			c0.4,0.4,0.6,0.8,0.7,1.3c0.2-0.2,0.4-0.4,0.6-0.6L79,6.3c0.1-0.1,0.2-0.1,0.3-0.2c0,0,0.1,0.1,0.2,0.2c0.1,0.2,0.2,0.3,0.2,0.5
			c0.4,0.7,0.4,0.8,0.4,1.2v0.7c1,0.2,1.6,1,1.4,2c-0.1,1-0.5,2-1.2,2.8c-0.5,0.7-0.6,0.9-0.6,1.4c0,2.3,1.7,3.6,4.6,3.7h2.1
			c1.2,0,2.4,0.2,3.5,0.6c0.8,0.3,1.6,0.5,2.4,0.6c0.3,0,0.6-0.2,0.6-0.4c0-0.5-0.8-0.8-3.4-1.6c-5.3-1.5-7.5-3.6-7.5-7.1
			c0.1-2.7,2.3-4.9,5.1-4.8c0,0,0.1,0,0.1,0c1.1,0,2.2,0.2,3.2,0.5l1.3,0.5c0.2,0.1,0.5,0.1,0.7,0.1c0.4,0,0.6-0.3,0.7-1.1
			c0-0.4,0.2-0.5,0.4-0.5s1,0.5,1.5,1.2c0.5,0.6,0.8,1.4,0.8,2.2c0,0.7-0.5,1.4-1.1,1.6c-0.5,1-1.6,1.7-2.7,1.7
			c-1.6-0.2-3.1-0.9-4.4-1.8c-0.4-0.3-1-0.5-1.5-0.6c-0.4-0.1-0.9,0.2-1,0.6c0,0.1,0,0.1,0,0.2c0,0.5,0.3,0.8,1.3,1.1
			c1.5,0.5,1.8,0.7,2.3,1.2c1.2,0.1,2.4,0.6,3.4,1.4c3,0.9,4.6,2.7,4.6,5c0.1,1.9-1.3,3.5-3.2,3.6c-0.1,0-0.2,0-0.2,0
			C92.7,22.8,92.1,22.7,91.6,22.6z"/>
		<path class="st5" d="M94.8,36.6c-0.1-0.2-0.1-0.4-0.1-0.6v-0.4c0.1-0.4,0.1-0.8,0.1-1.2c0-0.2-0.1-0.5-0.2-0.7l-0.4-0.5
			c-0.2-0.2-0.3-0.6-0.3-0.9c0-0.2,0-0.2,0.2-0.2h0.2l0.3,0.2c0.1,0.1,0.2,0.1,0.3,0.1c0.2,0,0.3-0.3,0.3-0.9
			c0.1-0.6-0.2-1.2-0.6-1.6L94,29.5c-0.1-0.1-0.1-0.2-0.1-0.3c0-0.1,0.1-0.2,0.2-0.2c0,0,0,0,0,0c0.1,0,0.3,0,0.4,0.1l0.3,0.1H95
			c0.1,0,0.2-0.1,0.2-0.3v-0.1L95,28.1c-0.1-0.7-0.2-1-0.4-1h-0.1l-0.8,0.1h-0.1c-1.1-0.1-2.1-0.9-2.5-2l-0.6-2.1
			c-0.3-0.8-0.8-1.5-1.5-2c-0.2-0.2-0.4-0.3-0.7-0.4l-0.6-0.1c-0.1,0-0.2-0.1-0.2-0.2s0.1-0.2,0.3-0.2c1,0,1.9,0.2,2.8,0.5
			c0.7,0.3,1.4,0.4,2.1,0.5c1.6,0,2.6-0.8,2.6-2.2c0-0.7-0.2-1.5-0.6-2.1c-0.4-0.6-0.9-1-1.5-1.4c-0.1-0.1-0.2-0.1-0.2-0.1
			c-0.1,0-0.2,0.1-0.2,0.2c0,0,0,0,0,0v0.4l0,0c0,0.2-0.1,0.3-0.2,0.3s-0.4-0.2-0.6-0.6c-0.4-1.1-1.4-1.9-2.5-2
			c-0.2,0-0.3,0.1-0.3,0.2c0,0.2,0.1,0.3,0.2,0.4c0.1,0.2,0.2,0.4,0.3,0.6c0,0.1,0.1,0.2,0.1,0.3c0,0.1,0,0.1-0.1,0.1
			c-0.2,0-0.4-0.1-0.5-0.3c-0.3-0.3-0.5-0.5-0.5-0.5l-0.4-0.6c-0.3-0.4-0.7-0.8-1.2-1l-0.8-0.4c-0.1-0.1-0.3-0.1-0.4-0.1
			c-0.1,0-0.2,0-0.2,0.1c0,0.1,0.1,0.3,0.2,0.4c0.1,0.2,0.2,0.4,0.3,0.6c0,0.1-0.1,0.2-0.1,0.2c0,0,0,0,0,0c-0.2,0-0.6-0.4-1.2-1.2
			c-0.4-0.5-0.6-1.2-0.6-1.8c0-1.3,1-2.4,2.3-2.4c0,0,0,0,0.1,0c0.9,0.1,1.7,0.3,2.4,0.8l1.5,0.9c0.5,0.3,1.1,0.5,1.8,0.6
			c0.3,0,0.6-0.1,0.8-0.2c0.1,0,0.3-0.1,0.4-0.2c0.1,0,0.1-0.1,0.1-0.2c0-0.1-0.1-0.2-0.3-0.2c-1.1-0.2-2.2-0.6-3.1-1.3
			c-0.3-0.2-0.7-0.4-1.1-0.6c-0.3-0.1-0.4-0.2-0.4-0.3s0.1-0.1,0.1-0.1H89l1.4,0.5l1.3,0.5c0.7,0.2,1.4,0.4,2.2,0.4c0.6,0,1-0.4,1-1
			c0-0.3-0.1-0.6-0.2-0.9c-0.2-0.4-0.4-0.7-0.6-0.7s-0.2,0.1-0.2,0.3V7v0.4c0,0.4-0.2,0.7-0.6,0.7c-0.2,0-0.4,0-0.5-0.1l-2.1-0.7
			c-1.1-0.4-2.2-0.7-3.4-0.7C85,6.4,83,8.1,82.9,10.4c0,0.1,0,0.1,0,0.2c0,2.6,1.8,4.2,6.2,5.7s4.9,1.9,4.9,3
			c-0.1,0.7-0.7,1.2-1.4,1.2c0,0,0,0,0,0c-0.3,0-0.5,0-0.8-0.1L89.8,20c-1.3-0.3-2.7-0.5-4-0.5c-3.2,0-4.7,0.5-6.4,2
			c-0.2,0.3-0.6,0.5-1,0.4h-0.2h-0.5c-0.4,0-0.7,0.2-0.9,0.6l-0.5,0.9c-0.1,0.1-0.2,0.2-0.4,0.2c-0.3,0-0.5-0.2-0.8-1
			c-0.1-0.4-0.3-0.7-0.6-1L73.8,21c-0.1-0.1-0.2-0.2-0.2-0.2c0-0.1,0.1-0.2,0.2-0.3c0.1-0.1,0.2-0.3,0.3-0.5
			c0.1-0.1,0.1-0.3,0.2-0.4v-0.3c0-0.1,0.1-0.2,0.2-0.2c0.2,0,0.2,0.1,0.2,0.9c0,0.3,0.1,0.6,0.3,0.9l0.3,0.8
			c0.1,0.1,0.2,0.2,0.3,0.2c0.3,0,0.8-0.8,0.9-1.6s0.2-0.9,0.3-0.9s0.2,0.1,0.5,0.6c0.1,0.2,0.2,0.3,0.4,0.5
			c0.1,0.1,0.2,0.2,0.4,0.2l0,0c0.3,0,0.4-0.2,0.4-0.8v-0.3l-0.1-0.8c0-0.2,0.1-0.3,0.2-0.3c0.1,0,0.2,0.1,0.2,0.1l0.3,0.3
			c0.2,0.2,0.4,0.3,0.7,0.3c0.3,0,0.4-0.1,0.4-0.3s0-0.2-0.3-0.7l-0.2-0.4c-0.3-0.5-0.4-0.7-0.7-0.7h-0.3l-0.4,0.2
			c-0.1,0-0.2,0.1-0.3,0.1c0,0-0.1,0-0.1-0.1c0.1-0.5,0.3-0.9,0.6-1.3c0.3-0.8,0.5-1.7,0.5-2.5l0.2-1.5c0.1-0.9,0.2-1.3,0.4-1.3
			s0.1,0,0.1,0.1l0.1,0.5v0.4c0,0.5,0,0.8,0.1,0.8s0.3-0.2,0.5-0.4c0.1-0.2,0.3-0.4,0.3-0.6c0.1-0.3,0.2-0.6,0.2-0.8
			c0-0.7-0.3-1.1-1.3-1.3c-0.1,0-0.2-0.1-0.2-0.1V8.9V8.4l0-0.4l-0.1-0.3l-0.2-0.4l-0.2,0.2c-0.4,0.2-0.7,0.5-1,0.8
			c-0.3,0.4-0.4,0.5-0.5,0.5c-0.1,0-0.1-0.1-0.2-0.1l0.1-0.6V8c0-0.8-0.4-1.5-1.1-1.9L76,6.3l-0.2,0.3l-0.4,0.4
			c-0.2,0.3-0.4,0.6-0.3,1v0.2c0,0.3,0,0.3-0.2,0.3h-0.1l-0.3-0.3L74.2,8l-0.6-0.3l-0.3-0.2c-0.3,0.5-0.4,1-0.4,1.5v0.3
			c0,0.3-0.1,0.5-0.2,0.5c-0.1,0-0.3-0.1-0.4-0.2c-0.1-0.1-0.3-0.1-0.5-0.1c-0.5,0-0.8,0.4-0.8,0.9c0,0,0,0,0,0
			c0,0.6,0.2,1.2,0.5,1.6c0.3,0.4,0.6,0.8,0.7,0.8c0.1-0.2,0.1-0.5,0.1-0.7l-0.1-0.5v-0.2c0-0.2,0.1-0.3,0.2-0.3s0.3,0.2,0.4,0.7
			l0.3,1.2l0.2,1.5c0.1,0.4,0.2,0.9,0.4,1.3c0.1,0.4,0.3,0.8,0.5,1.1c0.3,0.5,0.4,0.5,0.4,0.6c0,0.1-0.1,0.1-0.1,0.1
			c-0.1,0-0.2,0-0.3-0.1c-0.1-0.1-0.3-0.1-0.4-0.1h-0.2c-0.5,0-0.6,0.4-0.6,2.6c0,1.3,0.2,2.7,0.6,4l0.7,1.7
			c0.1,0.3,0.2,0.5,0.2,0.8c0,2.3-3.2,6.1-6.5,7.7c-1.3,0.6-1.7,1.3-1.8,3c0.4-0.2,0.7-0.3,1.1-0.5c1-0.3,1.2-0.4,1.3-0.8l0.1-0.4
			c0.1-0.2,0.2-0.3,0.8-0.6c0.2-0.1,0.4-0.2,0.5-0.4c0.2-0.3,0.3-0.4,0.4-0.4s0.1,0.1,0.1,0.2v0l-0.3,0.9v0.2c0,0.7,0.4,1.3,1.1,1.6
			c0-0.2,0.1-0.3,0.1-0.4c0.1-0.3,0.2-0.7,0.3-1l0.6-0.9c0.2-0.3,0.3-0.5,0.3-1.4v-1v-0.3c0-0.2,0.1-0.2,0.2-0.2s0.2,0,0.2,0.1
			l0.1,0.6c0,0.1,0.2,0.2,0.3,0.2c0.3,0,0.7-0.4,1.1-1.1c0.1-0.2,0.2-0.5,0.2-0.8c0-0.3,0-0.7-0.1-1v-0.2c0-0.1,0.1-0.2,0.2-0.3
			c0,0,0,0,0,0c0.1,0,0.1,0,0.2,0.1l0.2,0.7c0,0.2,0.2,0.4,0.4,0.4c0.5,0,1-1,1-2.1c0-0.7,0.1-0.9,0.3-0.9c0.1,0,0.1,0,0.2,0.1
			l0.1,0.4c0,0.2,0.1,0.3,0.2,0.3s0.2-0.1,0.4-0.4c0.1-0.1,0.2-0.3,0.3-0.4c0.1-0.1,0.1-0.2,0.1-0.3c0-0.2,0-0.2-0.3-0.4
			c-0.2-0.2-0.4-0.4-0.3-0.7c0.1-0.7,0.3-1.4,0.8-2c0.5-0.9,0.6-1,0.7-1c0.1,0,0.2,0.1,0.2,0.3c0,0.1,0,0.2-0.1,0.3
			c-0.1,0.1-0.1,0.3-0.1,0.4c0,0.1,0.1,0.2,0.2,0.2c0.2,0,0.4-0.1,0.6-0.2c0.3-0.1,0.6-0.3,0.9-0.4l1-0.3c0.2-0.1,0.4-0.1,0.7-0.1
			c0.2,0,0.4,0,0.6,0.1c0.2,0.1,0.5,0.1,0.7,0.1c0.3,0,0.5-0.2,0.5-0.5c0,0,0,0,0,0c0-0.2-0.1-0.4-0.2-0.5L84,21.8
			c-0.1-0.1-0.2-0.2-0.2-0.3v-0.1c0-0.1,0.1-0.1,0.2-0.1c0.2,0,0.8,0.5,1.2,1.2c2.5,4.1,3.7,5.4,5.6,6s2.4,1,2.4,2.1
			c-0.1,0.8-0.4,1.6-1,2.3c-1.3,1.8-1.7,2.8-1.7,4v0.3l0.3-0.2c0.2-0.1,0.3-0.2,0.5-0.2l0.8-0.2c0.3-0.1,0.5-0.4,0.5-0.7V36
			l-0.1-0.7v-0.2c0-0.4,0.2-0.7,0.4-0.7c0.1,0,0.2,0.1,0.2,0.2l0.5,1.1C93.9,36.1,94.3,36.5,94.8,36.6z"/>
		<path class="st5" d="M68.5,14.6v0.5v0.3c0,0.5,0.1,0.7,0.3,0.7s0.6-0.4,0.7-0.8c0.1-0.3,0.1-0.6,0.2-0.9c0-0.2-0.1-0.4-0.2-0.6
			c-0.2-0.4-0.3-0.5-0.5-0.5S68.6,13.7,68.5,14.6z"/>
		<path class="st5" d="M66.3,8.7l0.4,0.4c0.7,0.9,1.1,2.1,1.1,3.3V13l-0.1,1.5v1.3c0,4.2,1.2,7,3,7c0.6-0.1,1.1-0.5,1.4-1
			c0.1-0.1,0.2-0.2,0.2-0.2s0.2,0.1,0.2,0.3l0.1,0.7l0.1,0.6c0,0.2,0.1,0.5,0.1,0.7c0,0.2,0.1,0.4,0.1,0.6c0,0.3-0.1,0.4-0.8,0.5
			c-0.3,0-0.6,0.2-0.9,0.4c-0.3,0.2-0.6,0.4-0.8,0.6L70,26.6c0,0.1-0.1,0.1-0.2,0.2c-0.2,0-0.4-0.3-0.8-0.9c-0.2-0.3-0.4-0.6-0.5-1
			c0-0.1,0.1-0.1,0.3-0.1h0.1h0.4h0.3h0.3c0.1,0,0.2-0.1,0.2-0.2c0-0.1-0.1-0.2-0.1-0.2l-1.4-0.6c-0.4-0.2-0.8-0.6-1.1-1
			c-0.3-0.4-0.5-0.9-0.6-1.4c0-0.2,0.1-0.4,0.3-0.4c0.1,0,0.2,0,0.2,0.1c0.1,0.1,0.2,0.1,0.4,0.1c0.1,0,0.1,0,0.2-0.1
			c0.1,0,0.1-0.1,0.1-0.2c0-0.1-0.1-0.2-0.3-0.3c-1-0.6-1.7-1.6-1.9-2.7c0-0.2,0.1-0.4,0.2-0.4h0.2l0.4,0.1c0.2,0,0.3-0.1,0.3-0.2
			s-0.1-0.2-0.3-0.3c-0.8-0.4-1-0.6-1.5-1.8c-0.2-0.6-0.5-1.2-0.9-1.7c0.3-0.2,0.6-0.3,1-0.3c0.4,0,0.7,0.3,1,1.1
			c0.2,0.5,0.4,0.8,0.5,0.8s0.1-0.1,0.1-0.4c0-0.3,0-0.7-0.1-1c-0.1-0.2-0.1-0.5-0.1-0.7l-0.1-0.4l-0.4-0.2
			c-0.4-0.2-0.6-0.6-0.6-1.1c0-0.2,0-0.4,0.1-0.6c0,0,0.1-0.3,0.2-0.7C65.9,9.6,66,9.1,66,8.7V8.4L66.3,8.7z"/>
		<path class="st5" d="M70.2,31.8c-0.5-0.1-1.1-0.2-1.5-0.5c-0.4-0.2-0.8-0.3-1.2-0.3c-0.5,0-1,0.2-1.4,0.5l0.3,0.2l0.6,0.5l0.6,0.5
			c0.2,0.1,0.3,0.2,0.5,0.2C68.8,32.9,69.3,32.6,70.2,31.8z"/>
		<path class="st5" d="M82.5,37.7c0.1-0.3,0.4-0.6,0.6-0.8c0.9-0.8,1.3-1.3,1.3-1.8v-0.7c0-0.4,0.1-0.5,0.3-0.5c0.1,0,0.2,0,0.2,0.1
			l0.2,0.4c0,0.1,0.2,0.2,0.3,0.2c0.2,0,0.4-0.2,0.8-0.8c0.1-0.2,0.2-0.4,0.2-0.6c0-0.1,0-0.2-0.1-0.4c0-0.1-0.1-0.2-0.2-0.5
			c-0.1-0.2-0.1-0.3-0.1-0.5c0-0.2,0.1-0.3,0.3-0.3c0.1,0,0.2,0,0.2,0.1l0.2,0.3c0.1,0.1,0.1,0.1,0.2,0.1c0.2,0,0.3-0.1,0.4-0.3
			l0.3-0.5c0-0.1,0.1-0.2,0.1-0.3c0-0.1-0.1-0.2-0.3-0.3L87,30.2c-0.7-0.4-1-1.2-1-2c0-0.1,0-0.3,0.1-0.4l0.2-0.5
			c0.1-0.2,0.1-0.3,0.1-0.5c0-0.4-0.1-0.7-0.3-1c-0.2-0.4-0.3-0.6-0.4-0.7c-0.2-0.5-0.3-0.6-0.4-0.6c-0.1,0-0.3,0.1-0.4,0.1
			l-0.3,0.2l-0.4,0.5l-0.4,0.2c-0.3,0.3-0.5,0.7-0.5,1.2c0,0.7,0.2,1.1,1.2,2.9c0.4,0.5,0.6,1.2,0.7,1.8c0,1.3-1.3,2.4-3.5,2.8
			c-2.6,0.5-3.2,1-3.5,2.6c0.4-0.2,0.9-0.3,1.4-0.3h0.6c0.4,0,0.5,0,0.8-0.4c0.2-0.4,0.6-0.7,1-0.9l0.5-0.2l0.4-0.2h0.1
			c0.1,0,0.2,0,0.2,0.1c-0.1,0.2-0.2,0.4-0.3,0.5c-0.3,0.3-0.4,0.7-0.5,1.1C82.1,37,82.2,37.4,82.5,37.7z"/>
		<path class="st5" d="M78.4,32.7c0.4,0.2,0.7,0.5,1,0.9c0.3,0.4,0.3,0.5,0.7,0.5c0.2,0,0.3,0,0.5-0.1l0.3-0.1
			c0.6-0.1,0.7-0.2,0.7-0.3c0-0.1-0.1-0.2-0.1-0.2L81,33l-0.3-0.3c-0.3-0.2-0.6-0.3-1-0.3C79.2,32.3,78.8,32.4,78.4,32.7z"/>
		<path class="st5" d="M88.8,34.4H89h0.3h0.3h0.2c0.2,0,0.4,0,0.6-0.1c0.2-0.2,0.5-0.4,0.6-0.7c0.1-0.1,0.1-0.2,0.1-0.4
			c0-0.2-0.2-0.3-0.5-0.3C89.7,32.8,89.2,33.3,88.8,34.4z"/>
		<path class="st2" d="M76.9,12.3c0,0.3,0.2,0.5,0.3,0.5s0.3-0.5,0.7-1c0.4-0.5,0.7-1.1,0.8-1.8c0-0.1-0.1-0.2-0.2-0.2l0,0l-0.3,0.3
			c-0.3,0.3-0.7,0.4-1.1,0.6c-0.4,0.1-0.5,0.3-0.5,0.5v0.3l0.3,0.6L76.9,12.3z"/>
		<path class="st2" d="M74.1,9.9c-0.1-0.1-0.2-0.1-0.3-0.2c-0.1,0-0.2,0.1-0.2,0.2v0.1c0,0.2,0.1,0.4,0.1,0.5
			c0.1,0.3,0.2,0.6,0.4,0.9l0.5,0.8c0.2,0.2,0.4,0.4,0.7,0.4l0,0c0.1,0,0.2-0.1,0.2-0.1l0.1-0.6l0.2-0.6v-0.1c0-0.2-0.1-0.3-0.2-0.4
			l-0.5-0.3L74.1,9.9z"/>
		<path class="st2" d="M76.2,14H76h-0.4l-0.4-0.2c-0.1-0.1-0.3-0.1-0.4-0.1c-0.2,0-0.5,0.2-0.5,0.4c0,0,0,0.1,0,0.1
			c0.1,0.5,0.2,0.9,0.4,1.3c0.1,0.3,0.3,0.6,0.4,1c0.3,0.9,0.7,1.3,1.2,1.3s0.8-0.3,1-1l0.4-1.4c0.2-0.4,0.6-0.6,0.6-1
			c0-0.4-0.4-0.7-0.8-0.7h-0.2l-0.5,0.3L76.2,14z"/>
		<path class="st5" d="M76.2,14.9h-0.4c-0.1,0-0.1,0-0.2,0.1l-0.1,0.2l0.2,0.8l0.1,0.7c0.1,0.4,0.1,0.5,0.4,0.5
			c0.3,0,0.6-0.3,0.6-0.6l0.1-0.7C76.9,15.3,77,15,77,15c0-0.1,0-0.1-0.1-0.2c0,0-0.1-0.1-0.2-0.1l0,0L76.2,14.9z"/>
		<path class="st2" d="M32.4,83.1c0.2,0.5,0.4,1,0.4,1.5l0.1,1.4c0,1.3,0.5,2,1.3,2c0.3,0,0.5-0.1,0.7-0.2l0.3-0.3h0.1
			c0.2,0,0.3,0.2,0.3,0.4v0.5c0,0.5,0,1,0.1,1.5c0.1,0.4,0.1,0.9,0.1,1.3c0,0.5-0.1,1.1-0.3,1.6c0.2,0.6,0.3,1.3,0.3,1.9
			c0,0.5-0.1,1.1-0.4,1.6c0.1,0.4,0.2,0.7,0.2,1.1c0,0.4,0,0.8-0.1,1.2c-0.1,0.5-0.1,1-0.1,1.5v0c0,0.2-0.1,0.3-0.2,0.3
			c-0.2,0-0.3-0.1-0.4-0.2c-0.2-0.2-0.3-0.3-0.5-0.3s-0.3,0.1-0.6,1.1c-0.2,0.4-0.4,0.8-0.8,1.2c-0.2,0.3-0.4,0.6-0.6,0.9
			c-0.1,0.4-0.2,0.6-0.2,0.7c0,0.1-0.1,0.1-0.2,0.2l0,0c-0.5,0-1.1-1.1-1.8-3.3c-0.2-0.6-0.4-0.9-0.7-0.9c-0.2,0-0.5,0.1-0.6,0.4
			l-0.2,0.4c0,0.1-0.1,0.1-0.2,0.1c-0.2,0-0.6-0.5-0.9-1.1c-0.2-0.5-0.4-1-0.4-1.5c0-1,0.7-1.8,3-3c0.9-0.5,1.5-1.5,1.4-2.5
			c0-0.9-0.4-1.7-1.1-2.2c-0.4-0.4-0.9-0.6-1.4-0.7c-0.3,0-0.5,0.2-0.5,0.5c0,0,0,0,0,0c0,0.3,0.2,0.5,0.6,0.6s0.7,0.3,0.7,0.6
			c-0.1,0.4-0.3,0.8-0.5,1.2c-0.2,0.4-0.6,0.8-1,1.1c-0.2,0.9-0.7,1.7-1.5,2.1c-0.1,0.4-0.3,0.8-0.6,1.2l-0.7,0.9
			c-0.2,0.3-0.4,0.6-0.5,1c-0.1,0.5-0.1,0.6-0.3,0.6s-0.8-0.4-1.3-1.1c-0.3-0.3-0.5-0.6-0.5-1c-0.3,0.3-0.7,0.4-1.1,0.4
			c-0.3,0-0.6,0.1-0.9,0.2c-0.2,0.2-0.5,0.3-0.7,0.3c-0.1,0-0.2-0.1-0.2-0.3v-0.7c0-1,0.4-2,1-2.8c-0.4-0.4-1-0.7-1.6-0.8
			c-0.2,0-0.2,0-0.2-0.1c0-0.2,0.1-0.4,0.3-0.6c0.2-0.2,0.4-0.4,0.6-0.6c0.5-0.4,1.2-0.7,1.9-0.7c0.6,0.1,1.2,0.2,1.8,0.4
			c0.2,0.1,0.5,0.2,0.8,0.2c0.4,0,0.5-0.2,0.5-0.6c-0.1-1-0.4-2.1-0.9-3c-0.3-0.7-0.6-1.4-0.6-2.1c-0.1-1,0.4-2,1.2-2.6
			c-0.2-0.1-0.5-0.2-0.7-0.2c-0.4,0-0.7,0.1-1,0.3c-0.5,0.3-0.7,0.5-0.7,0.7s0.1,0.2,0.3,0.3s0.3,0.2,0.3,0.5c-0.1,1-0.7,2-1.6,2.5
			c-0.1,1-0.8,1.9-1.7,2.3c-0.1,0.5-0.3,1.1-0.7,1.5c-0.6,0.6-1,1.4-1.2,2.2c-0.1,0.3-0.2,0.5-0.3,0.5c-0.3-0.1-0.5-0.3-0.7-0.6
			c-0.2-0.2-0.4-0.4-0.5-0.6c-0.2-0.3-0.3-0.7-0.4-1c-0.1,0.1-0.3,0.1-0.5,0.1L15,92h-0.3c-0.6,0-1.3,0.1-1.8,0.4
			c-0.1,0.1-0.2,0.1-0.3,0.1c-0.2,0-0.4-0.4-0.4-1c0-1.1,0.4-2.3,1.1-3.2c-0.2-0.2-0.4-0.4-0.6-0.6c-0.1-0.1-0.2-0.2-0.3-0.2
			L12,87.4c-0.1-0.1-0.2-0.2-0.2-0.2s0.5-0.6,1-1c0.5-0.3,1-0.5,1.6-0.6c0.5,0,0.8,0.1,1.5,0.7c0.4,0.4,0.8,0.6,1,0.6
			c0.2,0,0.4-0.1,0.5-0.3c0.1-0.1,0.2-0.3,0.2-0.5c-0.2-0.9-0.8-1.7-1.5-2.2c-0.6-0.4-1.2-0.6-1.9-0.6c-0.8,0-1.6,0.4-2,1.2
			l-0.4,0.7c-0.1,0.2-0.2,0.3-0.3,0.3s-0.3-0.1-1-0.9l-0.8-1C9.3,83.3,9.1,83,9,82.7c0-0.1-0.1-0.3-0.2-0.4
			c-0.1-0.1-0.2-0.2-0.3-0.3c-0.8-0.7-1.3-1.6-1.4-2.7c0-0.1-0.1-0.2-0.1-0.4c-0.8-0.9-1.2-2-1.2-3.2c0-0.1,0-0.3,0.1-0.4
			c-0.5-0.5-0.5-0.6-0.9-1.8c-0.1-0.6-0.4-1.2-0.7-1.7c-0.1-0.1-0.1-0.2-0.1-0.2c0-0.2,0.3-0.3,0.7-0.4c0.2-0.1,0.4-0.1,0.7-0.1h0.6
			v-0.9c0-0.5,0.1-1,0.2-1.5c0.1-0.2,0.1-0.4,0.1-0.7c0-0.2,0-0.4-0.1-0.6c0-0.2,0-0.3-0.1-0.5c0-0.1-0.1-0.2-0.1-0.3
			c0-0.1,0.1-0.2,0.2-0.2c0.1,0,0.3,0.1,0.4,0.2c0.5,0.2,1,0.5,1.4,0.8c1,0.7,1.7,1.8,2,3V71c-0.1,0.3-0.1,0.4-0.1,0.5
			c0,0.2,0.1,0.4,0.2,0.5l0.4,0.5c0.3,0.4,0.5,0.8,0.5,1.2c0,0.3-0.1,0.4-0.6,1.2c-0.4,0.4-0.6,0.9-0.6,1.5c0,0.7,0.3,1.4,0.6,2
			c0.4,0.7,0.8,1,1.2,1c0.7,0,1-0.6,1.1-2.3c0.1-0.9,0.1-1.7,0.3-2.4v-0.4c0-0.2-0.1-0.3-0.3-0.6l-1-1.1c-0.9-1.1-1.2-1.6-1.2-2.4
			c-0.1-0.8,0.5-1.4,1.3-1.5c0,0,0.1,0,0.1,0h0.4v-0.2c0-0.3,0.1-0.6,0.2-0.9c0.2-0.7,0.4-1.2,0.6-1.2c0.1,0,0.2,0.1,0.3,0.2
			c0.2,0.1,0.4,0.2,0.6,0.2c0.2,0.1,0.4,0.2,0.6,0.3c0.1-0.4,0.3-0.8,0.5-1.1c0.4-0.5,0.9-1,1-1s0.3,0.1,0.5,0.4l0.6,0.7
			c0.1,0.2,0.3,0.4,0.4,0.6l0.1,0.3l0.4-0.2c0.2-0.2,0.4-0.2,0.5-0.3l0.6-0.3c0.1-0.1,0.2-0.1,0.3-0.2c0.1,0,0.2,0.2,0.4,1.2
			c0.1,0.5,0.2,0.9,0.2,1.4c0.9,0,1.6,0.7,1.6,1.6c0,0.1,0,0.2,0,0.4c-0.1,1.2-0.7,2.4-1.6,3.2C20.2,73.8,20,74,20,74.3
			c0,2.8,1,3.7,4.5,4.1c1.9,0.2,3.7,0.5,5.4,1.2c0.9,0.3,1.8,0.5,2.7,0.6c0.6,0,0.9-0.2,0.9-0.6c0-0.6-0.4-0.8-3-1.3
			c-5.9-1.2-8.2-3.2-8.2-7.2c-0.1-2.6,2-4.8,4.6-4.9c0.1,0,0.2,0,0.2,0c1.5,0.1,2.9,0.5,4.1,1.4c1.6,0.9,1.9,1.1,2.3,1.1
			s0.6-0.3,0.6-1c0-0.4,0.1-0.7,0.4-0.7c0.4,0.1,0.8,0.3,1,0.7c0.5,0.5,0.8,1.1,0.7,1.8c0,1.1-0.7,2.1-1.8,2.2
			c-0.1,0.1-0.2,0.2-0.3,0.3c-0.5,0.7-1.4,1.1-2.3,1c-1,0-2-0.4-2.8-0.9L27.6,71c-0.5-0.4-1-0.6-1.6-0.6c-0.6,0-1,0.4-1,0.9
			c0,0,0,0,0,0.1c0,0.7,0.5,1.2,1.1,1.4l1.5,0.4c0.5,0.2,0.9,0.3,1.4,0.6c0.2,0,0.5-0.1,0.7-0.1c0.9,0,1.9,0.2,2.7,0.7
			c0.2,0.1,0.4,0.2,0.6,0.3l0.8,0.2c2,0.7,3.3,2.5,3.3,4.6c0.1,1.9-1.4,3.6-3.3,3.7c-0.2,0-0.4,0-0.6,0L32.4,83.1z"/>
		<path class="st5" d="M31.9,102.1l0.2-0.4l0.5-0.5c0.4-0.5,0.6-1,0.6-1.7c0-0.3-0.1-0.7-0.2-1c-0.1-0.2-0.1-0.4-0.1-0.6
			c0-0.2,0.2-0.4,0.3-0.4c0.1,0,0.2,0.1,0.2,0.2l0.5,0.6c0.2,0.3,0.5,0.4,0.8,0.5v-0.4v-0.5c0-0.8-0.2-1.5-0.6-2.2
			c-0.2-0.2-0.3-0.4-0.4-0.6c0-0.1,0.1-0.2,0.2-0.2c0,0,0.1,0,0.1,0.1c0.3,0.2,0.5,0.3,0.5,0.3s0.3-0.4,0.3-0.8
			c0-0.7-0.2-1.3-0.7-1.8l-0.4-0.5c0-0.1-0.1-0.1-0.1-0.2c0-0.1,0.1-0.2,0.3-0.2c0,0,0,0,0,0c0.1,0,0.3,0.1,0.4,0.2
			c0.1,0.1,0.2,0.1,0.2,0.1c0.2,0,0.3-0.3,0.3-1.3v-0.4v-0.6c0-0.7-0.1-0.8-0.4-0.8h-0.3c-1.6,0-2.3-1-2.7-3.7
			c-0.3-1.9-1-3.3-1.9-3.6c-0.5-0.2-0.7-0.3-0.7-0.4s0.1-0.2,0.3-0.2c0.2,0,0.4,0.1,0.6,0.2c1,0.5,2.2,0.7,3.3,0.8
			c1.5,0.1,2.7-1.1,2.7-2.5c0,0,0,0,0,0c0-1.2-0.6-2.3-1.5-3.1c-0.2-0.2-0.5-0.4-0.8-0.5h-0.1h-0.2l0.1,0.5l0.1,0.3v0.1
			c0,0.1-0.1,0.1-0.2,0.1c-0.1,0-0.2-0.1-0.2-0.1l-0.6-0.9c-0.5-0.7-1.3-1.2-2.2-1.2c-0.3,0-0.4,0.1-0.4,0.3c0,0.1,0.1,0.3,0.2,0.4
			c0.1,0.1,0.2,0.3,0.3,0.5v0.1c0,0.1-0.1,0.1-0.1,0.1l0,0c-0.1,0-0.2-0.1-0.9-0.9C28.8,74.5,28,74,27,73.9c-0.1,0-0.2,0-0.2,0.1
			c0,0-0.1,0.1-0.1,0.1c0,0.1,0.1,0.3,0.2,0.3c0.2,0.1,0.3,0.3,0.4,0.5c0,0.1-0.1,0.1-0.2,0.1s-0.6-0.3-1.4-0.9
			c-1-0.6-1.7-1.7-1.7-2.9c-0.1-1.2,0.8-2.1,2-2.2c0,0,0,0,0,0c0.8,0,1.6,0.3,2.2,0.8l1.6,1.2c0.7,0.5,1.6,0.8,2.5,0.8
			c0.2,0,0.4,0,0.5-0.1c0.1-0.1,0.2-0.2,0.2-0.2s-0.1-0.1-0.3-0.1c-0.5-0.1-0.9-0.3-1.4-0.6l-1.6-1.2c-0.4-0.3-0.8-0.6-1.2-0.9
			c-0.9-0.4-1-0.6-1-0.7s0.1-0.1,0.2-0.1c0.1,0,0.2,0,0.3,0.1l0.8,0.3c0.5,0.2,0.9,0.5,1.4,0.8c1.7,1.2,2.6,1.5,3.6,1.5
			c0.9,0,1.6-0.6,1.7-1.5c0,0,0-0.1,0-0.1c0-0.2-0.1-0.4-0.1-0.6l-0.2-0.3c0-0.1-0.2-0.2-0.2-0.2l-0.1,0.1L34.8,69
			c0,0.1-0.1,0.2-0.1,0.2c-0.1,0.1-0.1,0.2-0.2,0.3c-0.2,0.2-0.4,0.2-0.6,0.2c-0.5,0-1-0.3-2.5-1.2c-1.2-0.8-2.6-1.4-4-1.5
			c-2.3,0-4.2,1.9-4.2,4.2l0,0c0,3.2,2,4.7,8.1,6c2.3,0.5,3.4,1.2,3.4,2.2s-0.8,1.5-2,1.5c-0.3,0-0.6,0-0.9-0.1
			c-0.2,0-1.3-0.3-3.3-0.9c-1.4-0.4-2.8-0.6-4.3-0.6c-2.4,0-4,0.7-5.1,2.3C19,81.9,18.8,82,18.7,82c-0.1,0-0.2-0.1-0.3-0.1L18,81.5
			c-0.3-0.3-0.7-0.4-1.1-0.4c-0.3,0-0.5,0.1-0.7,0.3c-0.1,0.1-0.2,0.2-0.3,0.2c-0.2,0-0.5-0.4-0.8-0.9c-0.3-0.7-0.5-1.4-0.6-2.2
			c0-0.3,0.1-0.6,0.2-0.6S15,78,15,78.2l0.2,0.9c0.1,0.5,0.4,0.9,0.7,0.9s0.3-0.1,0.5-0.4c0.1-0.1,0.2-0.3,0.3-0.5
			c0.2-0.6,0.2-0.7,0.4-0.7s0.3,0.1,0.4,0.7c0,0.2,0.1,0.4,0.2,0.5c0.1,0.2,0.2,0.4,0.4,0.6c0.1,0.1,0.2,0.2,0.3,0.2
			c0.3,0,0.5-0.5,0.5-1v-0.1v-0.6c0-0.2,0-0.3,0.2-0.3s0.1,0,0.2,0.2c0.1,0.2,0.3,0.3,0.5,0.4c0.1,0.1,0.3,0.1,0.5,0.2
			c0.1,0,0.2-0.1,0.3-0.2c0.1-0.1,0.1-0.2,0.1-0.2c0-0.1-0.1-0.2-0.5-0.6c-0.3-0.4-0.5-0.8-0.6-1.3c-0.1-0.3-0.2-0.4-0.3-0.4
			c-0.1,0-0.1,0-0.2,0.1l-0.4,0.2l-0.3,0.1h-0.1c-0.1,0-0.2-0.1-0.2-0.2c0,0,0,0,0,0c0.1-0.3,0.4-0.6,0.6-0.8
			c0.3-0.2,0.4-0.5,0.4-0.9c0-0.5,0.1-1,0.2-1l0.1-1.1c0.1-0.7,0.3-1.4,0.5-2.1c0-0.1,0.1-0.2,0.1-0.2s0.2,0.2,0.2,0.5v0.2v0.3
			c0,0.4,0.1,0.6,0.2,0.6s0.3-0.2,0.4-0.6l0.3-0.7c0.1-0.2,0.1-0.4,0.1-0.6c0-0.5-0.3-1-0.9-1.1h-0.2c-0.1,0-0.2,0.1-0.2,0.1
			c-0.2,0-0.3-0.2-0.3-0.4v-0.5v-0.6l-0.1-0.7v-0.3L19.3,67l-0.4,0.3l-0.5,0.4L18,68.1c-0.1,0.1-0.2,0.1-0.2,0.1
			c-0.2,0-0.3-0.1-0.3-0.6v-0.1c0-0.4-0.2-0.7-0.8-1.5l-0.2-0.2L16.3,66L16,66.6l-0.4,0.9l-0.1,0.6c0,0.2-0.1,0.3-0.1,0.3
			s-0.2-0.1-0.3-0.2c-0.3-0.5-0.8-0.8-1.4-0.9l-0.1,0.2c-0.1,0.4-0.2,0.6-0.2,0.7v0.6v0.4c0,0.2-0.1,0.3-0.2,0.3l0,0L13,69.3
			c-0.1-0.1-0.3-0.1-0.4-0.1c-0.5-0.1-0.9,0.2-1,0.7c0,0.1,0,0.1,0,0.2c0,0.4,0.1,0.7,0.7,1.6c0.3,0.4,0.6,0.7,0.7,0.7
			s0.1-0.2,0.1-0.4l-0.1-0.4C13,71.3,13,71.2,13,71c0-0.2,0.1-0.3,0.1-0.3c0.3,0,0.6,0.8,0.7,2l0.1,1.2c0,0.4,0.2,0.9,0.4,1.3
			c0.2,0.5,0.5,0.9,0.8,1.2c0.3,0.2,0.5,0.4,0.5,0.6c0,0.1-0.1,0.2-0.2,0.2l-0.6-0.2h-0.3c-0.6,0-0.9,0.4-0.9,1.5
			c0.1,1.5,0.8,3,1.9,4.1l1.5,1.2c0.7,0.6,1.2,1.4,1.3,2.3c0,0.9-1,1.9-2.8,2.5l-1.1,0.4c-0.8,0.3-1.1,0.8-1.5,2.4
			C13.4,91,13.7,91,14,91h0.6c0.4,0,0.7-0.2,0.7-0.6c0,0,0,0,0,0v-0.3c0-0.1,0.1-0.2,0.3-0.3l0.4-0.2l0.4-0.3c0,0,0.1-0.1,0.2-0.1
			c0.1,0,0.2,0.1,0.2,0.2c0,0.1,0,0.2-0.1,0.3c-0.1,0.4-0.2,0.7-0.2,1.1c0,0.6,0.1,1.3,0.5,1.8c0-0.1,0-0.3,0.1-0.4
			c0.2-0.3,0.3-0.6,0.5-0.9c0.4-0.6,0.7-1.3,0.8-2v-0.1l-0.1-0.7c0-0.1,0.1-0.3,0.2-0.3c0.1-0.1,0.1-0.1,0.2-0.1
			c0.1,0,0.2,0.1,0.3,0.3s0.2,0.3,0.2,0.3s0.3-0.3,0.5-0.7c0.1-0.2,0.2-0.4,0.2-0.7c0-0.1,0-0.3-0.1-0.4c-0.1-0.1-0.1-0.2-0.1-0.4
			c0-0.1,0-0.1,0.1-0.2c0,0,0.1-0.1,0.2-0.1c0.1,0,0.1,0,0.2,0.1l0.3,0.2c0.1,0.1,0.2,0.1,0.3,0.1c0.1,0,0.3-0.2,0.5-0.4
			c0.2-0.3,0.4-0.6,0.5-0.9c0-0.1,0-0.2-0.2-0.3c-0.6-0.4-1-1-1.1-1.7c0-0.2,0-0.3,0.1-0.5l0.3-0.9c0.2-0.4,0.2-0.7,0.3-0.7h0.1
			c0.1,0,0.2,0.1,0.2,0.2c0,0.1,0,0.3-0.1,0.4c-0.1,0.2-0.1,0.4-0.1,0.6c0,0.2,0.1,0.3,0.3,0.3c0,0,0,0,0.1,0c0.2,0,0.4,0,0.5-0.1
			c0.7-0.3,1.4-0.6,2.2-0.6c0.4,0,0.8,0.1,1.2,0.4c0.1,0.1,0.2,0.1,0.3,0.1c0.1,0,0.1-0.1,0.2-0.1c0,0,0.1-0.1,0.1-0.2
			c0-0.2-0.1-0.3-0.2-0.4c-0.1-0.1-0.2-0.3-0.2-0.4c0-0.1,0.1-0.2,0.1-0.2c0,0,0,0,0,0c0.5,0,1.3,1.6,2,4.1c0.6,2,0.8,2.2,2.7,3.3
			c1.6,0.9,2.2,1.8,2.2,3.3c-0.1,2-0.5,3.9-1.2,5.7c-0.5,1-0.5,2.2-0.1,3.2c0.1,0.2,0.1,0.5,0.2,0.7C31.7,101.8,31.8,102,31.9,102.1
			z"/>
		<path class="st5" d="M24.5,97.7c0.2-0.4,0.4-0.8,0.6-1.1c0.4-0.4,0.6-1,0.7-1.6v-0.5c0-0.5,0.1-0.7,0.3-0.7c0.1,0,0.1,0,0.2,0.1
			l0.2,0.3c0.1,0.1,0.1,0.1,0.2,0.1c0.2,0,0.3-0.1,0.4-0.3c0.2-0.3,0.4-0.7,0.4-1.1v-0.4v-0.4c0-0.2,0.1-0.3,0.3-0.3s0.2,0,0.3,0.3
			s0.2,0.3,0.2,0.3c0.1,0,0.2-0.1,0.3-0.2l0.3-0.4l0.2-0.3l0-0.2c0-0.1-0.1-0.2-0.2-0.3c-0.7-0.6-1-1.4-0.9-2.3
			c0-0.6-0.1-1.2-0.3-1.8c0-0.1-0.2-0.5-0.6-1.4c-0.2-0.4-0.3-0.8-0.4-1.2c-0.1-0.3-0.2-0.4-0.4-0.4c-0.9,0-1.6,0.8-1.5,1.7
			c0,0,0,0,0,0.1c0.1,0.9,0.3,1.8,0.7,2.6c0.4,0.8,0.7,1.7,0.8,2.7c0,1.2-0.5,1.7-2.1,2.3c-1.6,0.4-2.8,1.7-3,3.3l0.3-0.1l0.4-0.2
			l0.5-0.1c0.4-0.1,0.7-0.3,0.9-0.6l0.1-0.4c0-0.1,0.1-0.2,0.2-0.2l0.3-0.1l0.3-0.1l0.1,0.1L24,95.2c-0.1,0.2-0.1,0.5-0.1,0.7
			C23.9,96.6,24.1,97.2,24.5,97.7z"/>
		<path class="st5" d="M7.2,68c0,0.1,0.1,0.2,0.1,0.4c0,0.3-0.1,0.6-0.1,0.8l-0.1,0.7c0,0.6,0.1,1.1,0.3,1.7
			c0.1,0.2,0.2,0.5,0.2,0.7v0.1c0,0.1-0.1,0.2-0.1,0.2c-0.1,0-0.2-0.1-0.3-0.2C6.8,72.1,6.4,72,6,71.9c-0.2,0-0.4,0-0.5,0.1l0.2,0.4
			l0.5,1.2l0.7,1L7.5,75c0.1,0.1,0.1,0.1,0.2,0.2c0.1,0.1,0.1,0.1,0.1,0.2c0,0.1-0.1,0.1-0.1,0.1c0,0,0,0,0,0H7
			c-0.1,0-0.2,0.1-0.2,0.1c0.1,0.3,0.1,0.7,0.3,1l0.3,0.9L8,78.1l0.6,0.4c0.2,0.1,0.3,0.3,0.3,0.4c0,0.1,0,0.2-0.1,0.2H8.4
			c-0.1,0-0.2,0.1-0.2,0.3c0.1,0.5,0.3,0.9,0.6,1.2c0.5,0.7,0.8,0.9,1.4,0.9h0.5c0.2,0,0.4,0.1,0.4,0.3S11,82,10.8,82.1
			c-0.4,0.1-0.6,0.2-0.6,0.4c0,0.1,0.1,0.2,0.2,0.3l0.3,0.3c0.2,0.3,0.4,0.5,0.6,0.5c0.2,0,0.4-0.1,0.5-0.3c0.3-0.3,0.6-0.6,1-0.7
			c1.1-0.3,1.3-0.4,1.3-0.7c0-0.1-0.1-0.3-0.1-0.4c-0.3-0.5-0.5-1-0.5-1.6c0-0.4-0.1-0.7-0.2-0.7s-0.2,0.1-0.3,0.3
			c-0.2,0.4-0.7,0.6-1.1,0.7c-1.1,0-2.4-1.7-3.1-4c-0.2-0.6-0.2-1.1-0.2-1.7c0-0.7,0.1-1.3,0.2-2C8.9,71.6,9,71.1,9.1,71v-0.4
			C8.9,69.5,8.2,68.5,7.2,68z"/>
		<path class="st5" d="M9.5,72.4c-0.3,0.7-0.4,1.4-0.4,2.1c0,0.4,0.1,0.7,0.3,0.7s0.1-0.1,0.2-0.2l0.4-0.6c0.1-0.1,0.1-0.3,0.2-0.4
			c0.1-0.1,0.2-0.3,0.2-0.5C10.3,73.1,10,72.7,9.5,72.4z"/>
		<path class="st5" d="M13.1,86.9l0.2,0.2l0.2,0.2c0.6,0.7,0.7,0.7,1,0.7c0.4,0,0.8-0.1,1.2-0.3c0.1-0.1,0.2-0.2,0.2-0.2
			s-0.1-0.2-0.3-0.4l-0.4-0.3c-0.2-0.2-0.5-0.4-0.9-0.5C13.9,86.4,13.4,86.6,13.1,86.9z"/>
		<path class="st5" d="M20.5,92.7c0.2,0.1,0.4,0.2,0.6,0.3c0.2,0.1,0.3,0.2,0.5,0.3c0.2,0,0.3,0.1,0.5,0.1c0.1,0,0.3,0,0.4-0.1
			l0.7-0.3l0.6-0.2c0.2-0.1,0.3-0.2,0.3-0.2s-0.1-0.1-0.4-0.2c-0.2,0-0.3-0.1-0.5-0.2c-0.8-0.3-0.9-0.4-1.2-0.4
			C21.5,91.9,20.9,92.2,20.5,92.7z"/>
		<path class="st5" d="M28.6,99.2c0.2-0.5,0.4-0.6,1.1-0.6s1.6-1.5,1.6-2.5c0-0.1,0-0.2-0.1-0.2c-0.1,0-0.1,0.1-0.2,0.1
			c-0.2,0.1-0.3,0.2-0.5,0.3l-0.9,0.4C28.6,97,28.2,98.1,28.6,99.2C28.6,99.1,28.6,99.1,28.6,99.2L28.6,99.2z"/>
		<path class="st2" d="M14.8,71.3l0.3,0.4c0.2,0.2,0.4,0.4,0.7,0.5c0.1,0,0.1-0.1,0.2-0.3l0.1-0.5V71c0-0.4-0.2-0.6-1.1-0.8
			c-0.2-0.1-0.3-0.1-0.4-0.2c-0.1-0.1-0.2-0.2-0.4-0.2c-0.1,0-0.1,0-0.1,0.1V70l0.2,0.5L14.8,71.3z"/>
		<path class="st2" d="M18.2,71.3L17.8,72l-0.2,0.2l0,0c-0.2,0-0.3-0.4-0.4-0.8l-0.1-0.6c0-0.3,0.2-0.4,0.6-0.4
			c0.2,0,0.4-0.1,0.6-0.2l0.5-0.4h0c0.1,0,0.2,0.1,0.2,0.1c0,0,0,0,0,0l0,0l-0.2,0.6L18.2,71.3z"/>
		<path class="st2" d="M17.4,73.5l0.5-0.3c0.1,0,0.2-0.1,0.2-0.1c0.2,0,0.4,0.2,0.4,0.5c-0.1,0.6-0.3,1.1-0.7,1.6
			c-0.4,0.8-0.8,1.3-1.1,1.3s-1.1-0.7-1.8-2c-0.1-0.3-0.2-0.6-0.2-0.9c0-0.4,0.2-0.6,0.5-0.6c0.1,0,0.3,0,0.4,0.1l0.3,0.2
			c0.2,0.2,0.5,0.3,0.8,0.3C17,73.6,17.2,73.6,17.4,73.5z"/>
		<path class="st5" d="M16.6,74.2l-0.4-0.1h0c-0.2,0-0.3,0.1-0.3,0.3c0.1,0.5,0.3,1,0.6,1.4c0.1,0.1,0.1,0.1,0.2,0.1
			c0.2,0,0.4-0.4,0.5-1l0.1-0.5v-0.1c0-0.2-0.1-0.3-0.2-0.3H17"/>
		<path class="st2" d="M88.2,82.6c0.5,0.7,1.2,1.1,2,1.2c0.3,0,0.6-0.1,0.9-0.1c0.1,0,0.3-0.1,0.4-0.1c0.2,0,0.2,0.1,0.2,0.2
			c0,0.2-0.1,0.4-0.2,0.6c-0.1,0.2-0.1,0.4-0.2,0.6l-0.1,0.7l-0.3,0.6l-0.4,0.4l-0.1,0.1v0.4c0.1,0.7-0.3,1.3-0.9,1.7
			c-0.1,0-0.2,0.1-0.2,0.2l-0.1,0.3c-0.1,0.4-0.2,0.7-0.3,1.1c-0.2,0.3-0.4,0.6-0.6,0.9c-0.3,0.4-0.6,0.8-0.8,1.3
			c-0.1,0.3-0.2,0.4-0.4,0.4s-0.6-0.4-0.7-0.9c0,0.1-0.1,0.1-0.2,0.2l-0.4,0.2l-0.6,0.4c-0.2,0.1-0.3,0.2-0.5,0.4l-0.3,0.4
			c-0.1,0.1-0.1,0.1-0.2,0.1c-0.2,0-0.3-0.3-0.5-0.8l-0.3-1c-0.1-0.3-0.1-0.7-0.1-1c0-0.4,0.1-0.8,0.2-1.1c-0.4,0-0.8,0.1-1.2,0.2
			c-0.1,0-0.2,0.1-0.3,0.1c-0.1,0-0.2-0.1-0.2-0.2c0-0.2,0.1-0.3,0.1-0.5l0.4-1.1c0.4-0.9,1.2-1.5,2.2-1.6c0.3,0,0.6,0.1,0.8,0.2
			c0.2,0.1,0.3,0.1,0.5,0.1c0.4,0,0.7-0.3,0.7-0.6c0,0,0,0,0,0c0-0.2-0.1-0.3-0.3-0.4l-1.2-0.3c-0.6-0.2-1.1-0.6-1.4-1.1
			c-0.4-0.5-0.6-0.7-0.8-0.7s-0.2,0.1-0.2,0.2v0.4v0.2c0,1-0.4,2-0.9,2.9L81,89.3c-0.4,0.6-0.6,1.3-0.6,2c0,0.6,0.3,1.2,0.6,1.3
			l0.5,0.1c0.1,0,0.1,0.1,0.2,0.1c0.1,0,0.1,0.1,0.1,0.2c0,0.1-0.1,0.2-0.2,0.3L81,94.1c-0.4,0.6-0.9,1-1.6,1.2
			c-0.4,0.9-1.2,1.6-2.1,1.9l-0.1,0.2c-0.4,0.7-1,1.1-1.8,1.3h-0.1c-0.1,0.7-0.5,1.3-1.1,1.6c-0.3,0.2-0.5,0.3-0.7,0.6
			c-0.1,0.1-0.1,0.2-0.2,0.3c-0.1,0.3-0.3,0.5-0.5,0.5c-0.3,0-0.6-0.3-0.8-0.9l-0.3,0.2l-0.6,0.4c-0.4,0.1-0.7,0.2-1.1,0.3
			c-0.6,0.1-1.2,0.4-1.6,0.8l-0.3,0.5l-0.1,0.1c-0.2,0-0.3-0.2-0.4-0.5c-0.2-0.6-0.3-1.2-0.3-1.8c0-1.1,0.4-1.9,1.5-3v-0.3
			c0-1.8,1.3-3,3.3-3h0.3l1.1,0.1h0.1c0.6,0,1.2-0.3,1.7-0.7c0.8-0.6,1-1,1-1.8c0-0.4-0.1-0.9-0.3-1.3c-0.1-0.5-0.2-1-0.2-1.5
			c0.1-1.6,0.9-3,2.2-3.9c0.3-0.2,0.6-0.6,0.6-0.7s0-0.1-0.1-0.1c-0.2,0-0.3,0.1-0.4,0.2c-0.2,0.2-0.5,0.4-0.8,0.5l-0.5,0.3
			l-0.6,0.2c-0.2,0.1-0.3,0.2-0.3,0.3c0,0.1,0,0.2,0.1,0.3c0,0.1,0.1,0.2,0.1,0.2c0,0.1-0.1,0.3-0.2,0.4l-0.4,0.7
			c-0.3,0.6-0.7,1-1.3,1.3c-0.4,1-0.9,1.6-1.6,1.7c-0.6,1.2-1.1,1.6-2.2,1.8c-0.2,0.6-0.6,1.1-1,1.5c-0.2,0.2-0.3,0.3-0.4,0.5
			c-0.2,0.4-0.3,0.5-0.4,0.5c-0.3-0.1-0.5-0.3-0.7-0.5c-0.1-0.1-0.2-0.2-0.3-0.4l-0.3-0.5c-0.1-0.2-0.2-0.2-0.3-0.2h-0.2L66,93.2
			c-0.5,0.1-1,0.4-1.3,0.7l-0.4,0.6c0,0.1-0.1,0.1-0.2,0.1c-0.3,0-0.5-0.6-0.5-1.7c-0.1-0.7,0.1-1.4,0.4-2l0.9-1.2
			c0.1-0.1,0.2-0.3,0.2-0.5c0-0.2-0.1-0.3-0.2-0.4c-0.1-0.2-0.3-0.3-0.5-0.4l-0.6,0c-0.1,0-0.2,0-0.2-0.1c0-0.1,0-0.2,0.1-0.2
			c0.2-0.3,0.5-0.5,0.8-0.7c0.5-0.4,1.2-0.6,1.8-0.7c0.6,0,1.2,0.2,1.7,0.6l0.9,0.6c0.1,0.1,0.3,0.1,0.4,0.1c0.4,0,0.8-0.2,1-0.8
			c0.3-0.5,0.4-1,0.4-1.5c0-1.1-0.8-2-1.9-2.1c0,0-0.1,0-0.1,0c-0.6,0-1.2,0.2-1.7,0.6c-0.1,0.1-0.2,0.2-0.3,0.3l-0.2,0.6
			c-0.1,0.1-0.2,0.2-0.2,0.2s-0.5-0.5-0.8-1.1c-0.2-0.4-0.3-0.8-0.4-1.2c-0.2-0.5-0.3-1-0.3-1.6v-0.9c-0.4-0.6-0.6-1.3-0.6-2
			c0-0.4,0.1-0.8,0.2-1.1c-0.3-0.4-0.4-0.9-0.4-1.4v-0.4l0.1-0.4l0.1-0.4c-0.4-0.6-0.6-1.3-0.7-2.1c-0.1-0.5-0.2-0.9-0.4-1.3
			c0-0.1-0.1-0.1-0.1-0.2c0-0.2,0.4-0.4,1-0.4h0.4c-0.1-0.2-0.1-0.4-0.1-0.6c0-0.4,0.1-0.8,0.3-1.2c0.1-0.2,0.2-0.5,0.2-0.8
			c0-0.3,0-0.7-0.1-1l-0.3-0.6c0-0.1-0.1-0.2-0.1-0.3c0-0.1,0-0.1,0.2-0.1c1.1,0.2,2,0.8,2.8,1.6c0.9,0.7,1.3,1.8,1.2,2.9l-0.1,0.7
			c0.7,0.5,1.2,1.2,1.3,2.1c0,0.5-0.2,1-0.6,1.3c-0.7,0.6-1.1,1.5-1.1,2.4c0,1.7,0.5,2.6,1.4,2.6s1.5-0.9,1.6-2.2l0.1-1.2
			c0-0.4,0.1-0.8,0.2-1.2c0.1-0.3,0.1-0.6,0.1-0.8c0-0.4-0.3-1-1.1-2c-0.7-0.6-1.2-1.4-1.2-2.4c-0.1-0.9,0.6-1.7,1.5-1.7
			c0,0,0.1,0,0.1,0c0.2,0,0.4,0.1,0.6,0.2c0-0.5,0.1-1,0.3-1.5c0.2-0.6,0.5-1,0.6-1c0.1,0,0.1,0.1,0.2,0.1c0.1,0.1,0.3,0.2,0.4,0.3
			l0.3,0.2c0.1,0.1,0.2,0.2,0.3,0.3c0.1-0.6,0.5-1.2,1-1.6c0.4-0.4,0.6-0.6,0.7-0.6s0.2,0.1,0.2,0.2l0.4,0.5l0.5,0.6
			c0.2,0.3,0.4,0.6,0.4,0.9l0.3-0.2l0.5-0.3c0.1-0.1,0.3-0.2,0.4-0.3c0.1,0,0.1-0.1,0.2-0.1c0,0,0.1,0.1,0.2,0.2l0.2,0.7l0.4,0.8
			c0.1,0.3,0.2,0.5,0.2,0.8V69h0.2c0.6,0,1.2,0.8,1.2,1.6c-0.2,1.4-0.9,2.6-2.1,3.4c-0.1,0.3-0.1,0.6-0.1,0.8c0,2.6,0.7,3.1,4.6,3.7
			c0.9,0.1,1.8,0.3,2.6,0.5l2.5,0.8c0.6,0.2,1.2,0.4,1.9,0.4c0.5,0,0.7-0.1,0.7-0.4c0-0.4-0.6-0.8-2.6-1.6l-2.8-1.1
			c-2.8-1.1-4.2-2.8-4.2-5.4c-0.1-2.8,2.1-5.1,4.9-5.2c0.1,0,0.2,0,0.3,0c1.3,0,2.6,0.3,3.8,0.8c0.7,0.4,1.5,0.6,2.3,0.8
			c0.4,0,0.6-0.3,0.7-0.8s0.2-0.7,0.4-0.7s0.8,0.4,1.1,1c0.3,0.5,0.4,1.1,0.4,1.7c0.1,1-0.6,1.9-1.6,2c-0.6,0.8-1.6,1.3-2.6,1.3
			c-1.3,0-1.9-0.3-4.1-1.6c-0.5-0.4-1.1-0.6-1.7-0.6c-0.7-0.1-1.3,0.3-1.4,1c0,0,0,0,0,0c0,0.6,0.5,1,1.5,1.3c0.4,0,0.8,0.2,1.1,0.5
			c0.2,0,0.4-0.1,0.5-0.1c1.3,0.1,2.5,0.6,3.4,1.5c2,0.6,3.7,2.7,3.7,4.5c0,2-1.6,3.6-3.6,3.7C89.8,83,89,82.8,88.2,82.6z"/>
		<path class="st5" d="M87,91.5l0.1-0.3l0.1-0.4c0.1-0.2,0.2-0.4,0.3-0.5c0.3-0.5,0.5-1,0.5-1.6c0-0.2-0.1-0.4-0.2-0.6
			c-0.1-0.1-0.1-0.2-0.1-0.3c0-0.1,0-0.1,0.1-0.2c0,0,0.1-0.1,0.1-0.1l0,0c0.1,0,0.2,0.1,0.3,0.2c0.1,0.2,0.3,0.3,0.3,0.3
			s0.3-0.2,0.4-0.6c0-0.2,0.1-0.3,0.1-0.3c0-0.3-0.1-0.6-0.3-0.9c-0.1-0.1-0.1-0.2-0.1-0.3c0-0.1,0.1-0.2,0.2-0.2c0,0,0,0,0,0
			c0.2,0,0.3,0.1,0.4,0.3c0.1,0.1,0.2,0.1,0.2,0.1c0.2,0,0.3-0.2,0.5-0.7c0.1-0.2,0.1-0.3,0.1-0.5c0-0.1,0-0.2-0.1-0.2H90h-0.4
			c-0.7-0.1-1.3-0.4-1.8-0.9l-0.8-1c-0.3-0.3-0.6-0.7-0.8-1.1l-0.7-0.5c-0.1-0.1-0.2-0.1-0.2-0.3c0-0.1,0.1-0.2,0.3-0.2
			c0.6,0.1,1.1,0.3,1.7,0.6c1,0.4,2.1,0.6,3.2,0.7c1.5,0,2.8-1.2,2.8-2.7c-0.1-1-0.5-1.9-1.3-2.6c-0.2-0.2-0.4-0.3-0.6-0.4
			c-0.1,0-0.2,0.1-0.2,0.2c0,0,0,0,0,0c0,0.1,0,0.2,0.1,0.4c0,0.1,0.1,0.2,0.1,0.3c0,0.1-0.1,0.2-0.2,0.2s-0.4-0.3-0.6-0.9
			S90,75.2,89,74.7c-0.3-0.2-0.6-0.3-1-0.4c-0.1,0-0.1,0.1-0.1,0.2c0,0.1,0,0.3,0.1,0.4c0.1,0.2,0.2,0.4,0.2,0.6l0,0
			c0,0.1-0.1,0.2-0.1,0.2c0,0,0,0,0,0c-0.2,0-0.2,0-0.7-0.8c-0.4-0.5-0.8-0.8-1.4-1.1c-0.2-0.1-0.4-0.1-0.5-0.1l0,0
			c-0.1,0-0.2,0-0.2,0.1c0,0.1,0.1,0.2,0.2,0.3v0.2c0,0.1-0.1,0.2-0.1,0.2c0,0,0,0,0,0c-0.5-0.2-0.9-0.6-1.2-1
			c-0.5-0.5-0.8-1.2-0.8-1.9c0.1-1.3,1.2-2.3,2.5-2.3c0.3,0,0.6,0,0.8,0.2l1.1,0.6l1.3,0.9c0.7,0.5,1.6,0.8,2.4,0.9
			c0.3,0,0.7-0.1,1-0.2c0.3-0.1,0.5-0.2,0.5-0.3l0,0l-0.1-0.1L92,71c-0.7-0.2-1.4-0.5-2-0.9l-1.5-1l-1.3-0.5c-0.1,0-0.2-0.1-0.2-0.2
			c0-0.1,0.1-0.1,0.2-0.1l0.4,0.1l1.2,0.4c0.5,0.2,1,0.4,1.5,0.7c0.9,0.5,1.8,0.9,2.8,1c0.7,0,1.2-0.5,1.3-1.1c0,0,0,0,0-0.1
			c0-0.3-0.1-0.6-0.1-0.9c0-0.2-0.1-0.3-0.2-0.4c0-0.1-0.1-0.1-0.2-0.1s-0.1,0.1-0.1,0.3v0.2v0.2c0,0.6-0.2,0.8-0.9,0.8
			c-1-0.1-2-0.4-2.9-0.8c-1.1-0.5-2.2-0.8-3.4-0.8c-2.4,0-4.4,1.8-4.5,4.2c0,1.9,1.3,3.4,3.9,4.5l2.7,1.1c2.2,0.9,3.1,1.6,3.1,2.5
			c0,0.7-0.7,1.2-1.7,1.2c-0.7-0.1-1.4-0.2-2-0.5c-1.8-0.7-3.7-1.1-5.7-1.2c-2-0.1-4,0.6-5.4,2.1c-0.2,0.2-0.3,0.2-0.4,0.2
			c-0.2,0-0.3-0.1-0.5-0.2c-0.2-0.1-0.5-0.2-0.7-0.2c-0.3,0-0.6,0.2-0.8,0.4l-0.3,0.4c-0.1,0.1-0.2,0.2-0.3,0.2
			c-0.2,0-0.7-0.4-0.9-0.9c-0.1-0.3-0.2-0.5-0.3-0.8c-0.1-0.3-0.1-0.6-0.1-0.9v-0.6l0.1-0.6c0-0.2,0.1-0.4,0.1-0.6
			c0-0.1,0.1-0.1,0.2-0.1c0.2,0,0.2,0.2,0.2,0.5v0.3c0,0.9,0.4,1.8,0.8,1.8s0.6-0.6,0.8-1.7c0-0.2,0.1-0.3,0.2-0.3s0.2,0.2,0.3,0.6
			c0.1,0.4,0.3,0.7,0.5,1c0.1,0.1,0.2,0.2,0.4,0.3c0.3,0,0.4-0.4,0.6-1.3c0.1-0.4,0.2-0.6,0.3-0.6c0.1,0,0.1,0,0.1,0.1
			c0.1,0.1,0.2,0.2,0.2,0.3c0.1,0.1,0.2,0.2,0.3,0.3c0.1,0.1,0.2,0.1,0.4,0.1c0.1,0,0.2-0.1,0.3-0.1c0.1-0.1,0.2-0.2,0.2-0.3
			c0,0-0.1-0.2-0.2-0.3c-0.3-0.3-0.5-0.7-0.6-1.1c-0.1-0.3-0.2-0.6-0.3-0.7c0-0.1-0.1-0.2-0.2-0.2h-0.1h-0.2l-0.7,0.2h-0.2
			c-0.1,0-0.1-0.1-0.2-0.1c0,0,0,0,0,0c0-0.1,0.1-0.3,0.3-0.3c0.9-0.9,1.4-2.1,1.5-3.3c0-0.7,0.2-1.3,0.6-1.9
			c0.1-0.1,0.2-0.2,0.2-0.2s0.2,0.1,0.2,0.3c0,0.2,0,0.3-0.1,0.5c0,0.1-0.1,0.3-0.1,0.4v0.1l0.1,0.2l0.4-0.1l0.4-0.4
			c0.3-0.4,0.4-0.8,0.4-1.3c0-0.3-0.1-0.5-0.3-0.7c-0.2-0.2-0.3-0.3-0.5-0.3H79h-0.2c-0.2,0-0.3-0.1-0.3-0.2V69v-0.3l-0.2-0.8
			l-0.2-0.4L78,67.1l-0.2,0.2l-0.5,0.3c-0.1,0.1-0.2,0.3-0.3,0.4c-0.5,0.6-0.5,0.6-0.7,0.6s-0.2,0-0.2-0.1v-0.1
			c0.1-0.2,0.1-0.4,0.1-0.7c-0.1-0.7-0.4-1.4-0.9-1.9c-0.6,0.5-0.9,1.2-1,2v0.4c0,0.2,0,0.2-0.2,0.2l0,0c-0.1,0-0.2-0.1-0.2-0.2
			l-0.4-0.5c0,0-0.2-0.2-0.5-0.4l-0.2-0.2l-0.1,0.3c-0.3,0.5-0.4,1-0.4,1.5c0,0.4,0,0.6-0.2,0.6c-0.1,0-0.1,0-0.2-0.1
			c-0.5-0.3-0.5-0.3-0.7-0.3c-0.5,0-1,0.4-1,0.9c0,0,0,0.1,0,0.1c0,0.4,0.2,0.7,0.4,1.1c0.3,0.5,0.7,1,0.9,1s0.1,0,0.1-0.2v-0.1
			v-0.5L71.4,71v-0.1c0-0.1,0-0.2,0.1-0.2c0.3,0,0.6,0.8,0.8,2.6c0,1.1,0.5,2.2,1.2,3.1c0.2,0.2,0.3,0.3,0.3,0.3
			c0,0.1-0.1,0.1-0.1,0.1c0,0,0,0,0,0c-0.2,0-0.3-0.1-0.4-0.2c-0.1-0.1-0.2-0.1-0.3-0.1c-0.4,0.1-0.7,0.4-0.8,0.8l-0.3,1.8l-0.2,2.6
			c0,0.6,0,1.3,0.2,1.9c0.1,0.5,0.2,1,0.2,1.5c0,1.9-1.3,3.6-3.2,4l-2.1,0.6c-1.3,0.3-2.1,1.5-2.1,2.8c0.3-0.2,0.6-0.4,0.9-0.4
			l0.6-0.1c0.2,0,0.4-0.1,0.5-0.2c0.1-0.1,0.3-0.2,0.4-0.3l0.5-0.6c0.2-0.2,0.4-0.4,0.5-0.4c0.1,0,0.2,0.1,0.1,0.2c0,0,0,0,0,0
			c0,0.2-0.1,0.4-0.2,0.5C68,91.6,68,91.9,68,92.2c0,0.5,0.2,0.9,0.5,1.3c0-0.1,0.1-0.3,0.1-0.4c0.2-0.2,0.3-0.5,0.5-0.7
			c0.4-0.4,0.6-0.9,0.8-1.4c0-0.5,0.1-0.7,0.2-0.7s0.1,0,0.2,0.3c0,0.1,0,0.1,0.1,0.2c0.1,0.1,0.1,0.1,0.2,0.1
			c0.1,0,0.2-0.1,0.2-0.1c0.2-0.1,0.4-0.3,0.5-0.4c0.1-0.2,0.2-0.4,0.3-0.6c0.1-0.2,0.1-0.4,0.2-0.6v-0.4c0-0.1,0-0.2,0.1-0.2
			s0.2,0.2,0.3,0.4s0.1,0.2,0.2,0.2l0,0c0.1,0,0.2-0.1,0.3-0.1c0.4-0.3,0.6-0.7,0.7-1.2v-0.6l-0.1-0.5l0,0c0-0.1,0.1-0.2,0.2-0.2
			c0.1,0,0.3,0.2,0.5,0.7c0.1,0.2,0.2,0.3,0.3,0.3s0.3-0.1,0.6-0.5l0.3-0.4c0.1-0.1,0.1-0.2,0.1-0.3c0-0.1,0-0.2-0.1-0.3l-0.2-0.4
			c-0.1-0.1-0.1-0.2-0.1-0.3c0-0.5,0.2-1,0.5-1.5c0.2-0.3,0.3-0.5,0.4-0.8c0.1-0.1,0.1-0.2,0.2-0.2s0.1,0.1,0.1,0.2v0.4v0.5
			c0,0.1,0.1,0.2,0.3,0.2c0.1,0,0.2,0,0.3-0.1l0.8-0.3c0.3-0.1,0.5-0.2,0.7-0.4c0.7-0.5,1.4-0.8,2.3-0.8c0.5,0.1,1,0.2,1.5,0.5
			c0.1,0.1,0.2,0.1,0.3,0.1c0.1,0,0.2-0.1,0.3-0.2c0.1-0.1,0.1-0.2,0.1-0.2c0-0.1-0.1-0.3-0.1-0.4c-0.1-0.1-0.2-0.3-0.2-0.5
			c0-0.1,0-0.1,0.1-0.1c0,0,0,0,0,0c0.1,0,0.2,0.1,0.2,0.2c0.1,0.2,0.3,0.6,0.7,1.3c0.4,0.9,1.1,1.6,2.1,2l1.4,0.3
			c0.4,0.1,0.6,0.3,0.6,0.8c0,1-0.5,1.8-1.4,2.3l-1.2,0.7c-0.5,0.4-0.8,1-0.8,1.6c0,0.6,0.1,1.1,0.2,1.7l0.2-0.2l0.6-0.3l0.5-0.5
			l0.2-0.7l0.3-0.6c0.1-0.3,0.3-0.5,0.4-0.5s0.2,0.2,0.2,0.5v0.2C86.6,90.6,86.7,91.1,87,91.5z"/>
		<path class="st5" d="M68.1,100.6c0-1.5,0.6-2.2,2.8-3.3c4.4-2.2,6.7-4.2,6.7-5.8c-0.1-0.6-0.2-1.2-0.4-1.7
			c-0.2-0.4-0.2-0.9-0.3-1.4c0.1-0.9,0.6-1.8,1.3-2.4l0.6-0.6c0.3-0.3,0.5-0.6,0.6-1v-0.3c0-0.3,0.1-0.4,0.5-0.4h0.3l0.2-0.1
			c0.1,0,0.2,0.1,0.3,0.2l0.2,0.3l0.2,0.2c0,0.1,0.1,0.1,0.2,0.1c0.1,0,0.2,0,0.2-0.1c0.1-0.1,0.2-0.1,0.4-0.1
			c0.1,0,0.2,0.1,0.3,0.2c0,0,0,0,0,0.1C82,85.4,81.6,86.3,81,87c-1.2,1.7-1.6,2.6-1.6,3.6c0,0.8,0.2,1.5,0.7,2.2
			c0.1,0.1,0.1,0.1,0.1,0.2c0,0.2-0.1,0.3-0.2,0.4l-0.2,0.3c-0.2,0.4-0.4,0.5-0.6,0.5c-0.1,0-0.3-0.1-0.3-0.2l-0.1-0.3
			c0-0.1-0.1-0.2-0.2-0.2s-0.1,0-0.1,0.1c-0.1,0.1-0.1,0.2-0.1,0.3v0.6c0,0.2-0.1,0.5-0.2,0.6c-0.1,0.2-0.3,0.3-0.4,0.5
			c-0.1,0.1-0.2,0.1-0.2,0.2c-0.1,0-0.2-0.1-0.2-0.3L77,94.9c0-0.1-0.1-0.1-0.2-0.2c-0.1,0-0.2,0.2-0.2,0.4c0,0.5-0.1,0.9-0.4,1.3
			l-0.4,0.4c-0.1,0.1-0.3,0.2-0.4,0.2c-0.1,0-0.2,0-0.2-0.1l-0.2-0.5c0-0.1-0.1-0.1-0.1-0.1c-0.1,0-0.2,0.3-0.3,0.7
			c0,0.8-0.3,1.6-1,2.1c-0.4,0.2-0.6,0.5-0.8,0.9c-0.3-0.4-0.4-0.8-0.4-1.3c0-0.2,0-0.4,0.1-0.6c0.1-0.2,0.2-0.3,0.2-0.5
			c0-0.1,0-0.2-0.1-0.2s-0.1,0-0.2,0.1c-0.1,0.1-0.3,0.2-0.4,0.3c-0.5,0.2-0.8,0.6-0.8,1.1c-0.1,0.8-0.7,1.4-1.5,1.4
			c-1.1,0.2-1.2,0.2-1.5,0.6L68.1,100.6z"/>
		<path class="st5" d="M66,67.6v0.8c0,0.2,0,0.4-0.1,0.5c-0.1,0.2-0.1,0.5-0.1,0.7c0,0.6,0.1,1.1,0.4,1.6c0.2,0.3,0.3,0.7,0.3,1.1
			c0,0.1,0,0.2-0.1,0.2c-0.1,0-0.1,0-0.2-0.1L66,72c-0.2-0.3-0.4-0.3-0.9-0.3h-0.6c0.2,0.4,0.3,0.7,0.4,1.1c0.3,1,0.3,1.1,0.9,1.6
			s0.6,0.6,0.6,0.8c0,0.1-0.1,0.2-0.2,0.3H66h-0.1c-0.2,0-0.3,0.3-0.3,0.7c0,0.3,0.1,0.6,0.2,0.8c0.1,0.1,0.1,0.3,0.2,0.4l0.3,0.3
			c0.1,0.1,0.1,0.2,0.1,0.3c0,0.2-0.1,0.3-0.2,0.3c-0.1,0-0.2-0.1-0.3-0.1c-0.1,0-0.1-0.1-0.2-0.1c-0.2,0-0.2,0.1-0.2,0.3v0.5
			l0.2,0.8c0.1,0.2,0.2,0.4,0.3,0.6c0.1,0.2,0.3,0.3,0.5,0.4c0.2,0.1,0.4,0.2,0.6,0.3c0.1,0.1,0.1,0.2,0.1,0.2
			c0,0.1-0.1,0.2-0.2,0.2l-0.3-0.1h-0.3c-0.3,0-0.3,0-0.3,0.3c0,0.2,0,0.3,0.1,0.5l0.1,0.5c0.1,0.5,0.3,0.8,0.5,0.8
			c0.1,0,0.2-0.1,0.2-0.1c0.6-0.4,1.3-0.6,2-0.7c0.5,0,1,0,1.6,0.2c0.1,0,0.2,0.1,0.3,0.1c0.1,0,0.1-0.1,0.1-0.4L71,82l0.1-1
			l0.1-0.7v-0.4L71,80c-0.4,0.4-0.9,0.7-1.4,0.7c-1.5,0-2.3-1.7-2.3-4.6c0-1.6,0.2-3.2,0.5-4.8c0.1-0.3,0.1-0.6,0.1-0.9
			C67.8,69.2,67.1,68.1,66,67.6z"/>
		<path class="st5" d="M68.2,74.8l0.3-0.3l0.3-0.2c0.3-0.3,0.4-0.6,0.4-1c0-0.2,0-0.3-0.1-0.4c-0.1-0.2-0.3-0.5-0.4-0.5
			s-0.2,0.3-0.2,0.7l-0.1,0.5L68.2,74v0.5L68.2,74.8z"/>
		<path class="st5" d="M65.3,87.9c0.3,0.1,0.4,0.2,0.7,0.6c0.3,0.4,0.8,0.7,1.3,0.6c0.2,0,0.3,0,0.4-0.1l0.4-0.1l0.3-0.1
			c0.2,0,0.3-0.1,0.3-0.2s-0.3-0.3-0.7-0.6c-0.2-0.2-0.5-0.3-0.8-0.4c-0.2-0.1-0.5-0.2-0.7-0.2C66.2,87.5,65.7,87.6,65.3,87.9z"/>
		<path class="st5" d="M69.7,96.9c0.1-1.1,1.1-2,2.3-1.9c0.6,0,1,0.1,1,0.3s-0.3,0.4-0.9,0.7l-0.9,0.5c-0.5,0.3-0.9,0.5-1.4,0.7
			L69.7,96.9z"/>
		<path class="st5" d="M82.7,89.1c0.4-0.1,0.6-0.2,0.8-0.2h0.6c0.1-0.1,0.3-0.2,0.4-0.3l0.4-0.3c0.6-0.4,0.7-0.5,0.7-0.6
			s-0.3-0.3-0.8-0.3C83.8,87.5,83.2,88,82.7,89.1z"/>
		<path class="st2" d="M73,69.6l0.5,0.3c0.2,0.1,0.4,0.3,0.6,0.3c0.5,0.2,0.7,0.3,0.7,0.5c0,0.1,0,0.2-0.1,0.4
			c0,0.1-0.1,0.3-0.1,0.4c0,0.4-0.3,0.6-0.5,0.6s-0.4-0.3-0.8-1c-0.2-0.4-0.4-0.8-0.5-1.3v-0.1C72.8,69.6,72.8,69.5,73,69.6"/>
		<path class="st2" d="M77.4,70.7l-0.7,0.7c-0.1,0.2-0.2,0.5-0.3,0.7c-0.1,0.1-0.1,0.1-0.2,0.1l0,0c-0.2,0-0.3-0.1-0.3-0.3
			c0,0,0,0,0,0v-0.5v-0.6l0,0c0-0.2,0.1-0.3,0.3-0.4l0.7-0.2l0.7-0.3c0.1-0.1,0.2-0.1,0.3-0.1c0.1,0,0.2,0.1,0.2,0.2
			c0,0.1,0,0.1-0.1,0.2L77.4,70.7z"/>
		<path class="st2" d="M74.1,72.9l0.5,0.3c0.1,0.1,0.3,0.1,0.4,0.1c0.3,0,0.5-0.1,0.8-0.2l0.4-0.2c0.1,0,0.2-0.1,0.2-0.1
			c0.3,0,0.5,0.3,0.5,0.6c-0.1,0.6-0.4,1.2-0.8,1.7l-0.3,0.7c-0.3,0.4-0.5,0.5-0.7,0.5c-0.4,0-0.6-0.2-1.1-1.3
			c-0.3-0.5-0.5-1.1-0.6-1.7c0-0.3,0.2-0.6,0.4-0.6C73.9,72.8,74,72.8,74.1,72.9z"/>
		<path class="st5" d="M74.5,74.7v0.6c0,0.3,0.2,0.5,0.5,0.5c0.3,0,0.5-0.4,0.6-1.1c0-0.1,0.1-0.3,0.1-0.4c0-0.2-0.1-0.3-0.4-0.3
			h-0.5c-0.2,0-0.3,0.2-0.3,0.6"/>
		<path class="st2" d="M38.5,60.2h3.1v6.4h3.7v-6.4h9.3v6.4h3.7v-6.4h3.1V43.6h-3.6l-0.1-0.2c-0.4-0.6-1-1-1.7-1
			c-0.7,0-1.4,0.5-1.7,1.2h-2.6c-0.3-0.7-1-1.2-1.7-1.2c-0.8,0-1.5,0.4-1.8,1.2h-2.8c-0.3-0.7-1-1.2-1.8-1.2c-0.8,0-1.5,0.4-1.7,1.2
			h-3.4V60.2z"/>
		<path class="st4" d="M39.8,58.9h20.4V45H39.8V58.9z"/>
		<path class="st5" d="M41.9,48.2c-0.6,0-1,0.4-1,1s0.4,1,1,1s1-0.4,1-1S42.5,48.2,41.9,48.2z"/>
		<path class="st2" d="M41.9,48.3c-0.5,0-0.8,0.4-0.8,0.8c0,0.5,0.4,0.8,0.8,0.8c0.5,0,0.8-0.4,0.8-0.8c0,0,0,0,0,0
			C42.7,48.7,42.4,48.3,41.9,48.3z M41.9,50.2c-0.6,0-1.1-0.5-1.1-1.1c0-0.6,0.5-1.1,1.1-1.1c0.6,0,1.1,0.5,1.1,1.1c0,0,0,0,0,0
			C43,49.7,42.5,50.2,41.9,50.2z"/>
		<path class="st5" d="M57.9,48.2c-0.6,0-1,0.4-1,1s0.4,1,1,1s1-0.4,1-1S58.5,48.2,57.9,48.2z"/>
		<path class="st2" d="M57.9,48.3c-0.5,0-0.8,0.4-0.8,0.8c0,0.5,0.4,0.8,0.8,0.8c0.5,0,0.8-0.4,0.8-0.8c0,0,0,0,0,0
			C58.7,48.7,58.4,48.3,57.9,48.3z M57.9,50.2c-0.6,0-1.1-0.5-1.1-1.1c0-0.6,0.5-1.1,1.1-1.1c0.6,0,1.1,0.5,1.1,1.1c0,0,0,0,0,0
			C59,49.7,58.5,50.2,57.9,50.2z"/>
		<path class="st5" d="M41.9,55.8c-0.6,0-1,0.4-1,1s0.4,1,1,1c0.5,0,0.9-0.5,0.9-1C42.8,56.2,42.4,55.8,41.9,55.8z"/>
		<path class="st2" d="M41.9,55.9c-0.5,0-0.8,0.4-0.8,0.8c0,0.5,0.4,0.9,0.9,0.8c0,0,0,0,0,0c0.5,0,0.8-0.4,0.8-0.8c0,0,0,0,0,0
			C42.7,56.3,42.4,55.9,41.9,55.9z M41.9,57.8c-0.6,0-1.1-0.5-1.1-1.1c0,0,0,0,0,0c0-0.6,0.5-1.1,1.1-1.1c0.6,0,1.1,0.5,1.1,1.1l0,0
			C43,57.3,42.6,57.8,41.9,57.8L41.9,57.8z"/>
		<path class="st5" d="M57.9,55.8c-0.6,0-1,0.4-1,1s0.4,1,1,1s1-0.4,1-1S58.5,55.8,57.9,55.8z"/>
		<path class="st2" d="M57.9,55.9c-0.5,0-0.8,0.4-0.8,0.8s0.4,0.8,0.8,0.8s0.8-0.4,0.8-0.8C58.7,56.3,58.4,55.9,57.9,55.9z
			 M57.9,57.8c-0.6,0-1.1-0.5-1.1-1.1s0.5-1.1,1.1-1.1s1.1,0.5,1.1,1.1v0C59,57.3,58.5,57.8,57.9,57.8
			C57.9,57.8,57.9,57.8,57.9,57.8z"/>
		<path class="st5" d="M45,52.8c1.2,1.6,3,2.5,5,2.5c1.9,0,3.2-0.7,4.7-2.5c-2.3-2.7-6.4-3-9.1-0.7C45.4,52.4,45.2,52.6,45,52.8
			L45,52.8z"/>
		<path class="st2" d="M45.9,52.8c1.1-0.9,2.5-1.5,3.9-1.5c1.4,0,2.8,0.5,3.9,1.5c-1,1.1-2.4,1.7-3.9,1.7
			C48.3,54.5,46.9,53.9,45.9,52.8z"/>
		<path class="st5" d="M47.6,52.5c0.7,0.4,1.4,0.7,2.2,0.7c0.8,0,1.7-0.2,2.3-0.7c-0.7-0.4-1.5-0.6-2.3-0.6
			C49,51.9,48.3,52.1,47.6,52.5z"/>
		<path class="st2" d="M39.5,46.4h21v-0.7h-21V46.4z"/>
		<path class="st6" d="M39.5,46.3h20.9v-0.6H39.5V46.3z M39.5,46.4h21v-0.8h-21V46.4z"/>
		<path class="st5" d="M42.7,44.8v2c0,0.5,0.4,0.8,0.8,0.8c0,0,0,0,0,0c0.4,0.1,0.8-0.2,0.9-0.7c0-0.1,0-0.1,0-0.2v-2
			c0-0.8-0.3-1.2-0.8-1.2c-0.1,0-0.3,0-0.4,0.1c-0.1,0-0.2,0.1-0.2,0.1c-0.1,0.1-0.1,0.2-0.2,0.3c-0.1,0.1-0.1,0.2-0.1,0.4"/>
		<path class="st5" d="M49,46.4v0.3c0,0.5,0.4,0.8,0.8,0.8c0,0,0,0,0,0c0.4,0.1,0.8-0.2,0.9-0.7c0-0.1,0-0.1,0-0.2v-2
			c0-0.8-0.3-1.2-0.8-1.2s-1,0.5-1,1.2"/>
		<path class="st5" d="M55.1,44.8v2c0,0.5,0.4,0.8,0.8,0.8c0,0,0,0,0,0c0.4,0.1,0.8-0.2,0.9-0.7c0-0.1,0-0.1,0-0.2v-2
			c0-0.8-0.3-1.2-0.8-1.2c-0.1,0-0.3,0-0.4,0.1c-0.1,0-0.2,0.1-0.2,0.1c-0.1,0.1-0.1,0.2-0.2,0.3c-0.1,0.1-0.1,0.2-0.1,0.4"/>
		<path class="st5" d="M42.3,64.1h1.9v-2.5h-1.9V64.1z"/>
		<path class="st5" d="M42.3,65.5h1.9v-0.8h-1.9V65.5z"/>
		<path class="st5" d="M55.3,64.1h1.9v-2.5h-1.9V64.1z"/>
		<path class="st5" d="M55.3,65.5h1.9v-0.8h-1.9V65.5z"/>
		<path class="st7" d="M160,2.1v1.5h-1c-1.4,0-3.8,0-3.8,4.5v18.3c0,11.2-4.9,16.7-14.9,16.7c-11.3,0-16.6-4.5-16.6-14.2V8
			c0-4.5-2.4-4.5-4.6-4.5h-0.4V2.1h16.9v1.5h-0.5c-2.1,0-4.7,0-4.7,4.5v19.8c0,8.6,3.6,12.7,10.9,12.7c7.1,0,10.9-4.5,10.9-12.9V8
			c0-4.5-2.5-4.5-4.3-4.5h-0.9V2.1H160z"/>
		<path class="st7" d="M178.3,40.6v1.5H164v-1.5h0.6c4.7,0,5.3-3.6,5.3-7.6V9c0-3.8-2.2-5.4-5.4-5.4H164V2.1h11.2l24.3,29.8V9.2
			c0-5.1-3.6-5.7-5.1-5.7h-1V2.1h14.4v1.5h-0.6c-2.5,0-5.2,0.6-5.2,7.6v31.2h-2.1L172.3,8.9V33c0,4,0.6,7.6,5.4,7.6"/>
		<path class="st7" d="M254.9,33.6L263.7,9c1.6-4.2,0.6-5.5-3.1-5.5h-0.7V2.1h11.4v1.5h-0.2c-1.2,0-2.7,0.4-3.8,3.1L254,42.2h-2.5
			L236.9,7c-1.1-2.9-2.5-3.5-4.9-3.5h-0.3V2.1h16.6v1.5h-1.1c-2.8,0-3.4,1.8-2.6,3.9"/>
		<path class="st7" d="M321.7,4v17.7h3.4c6.2,0,9-2.8,9-9.3c0-5.3-3.4-8.7-8.5-8.7C324.3,3.7,323,3.8,321.7,4z M327.9,2.1
			c8.9,0,13.3,3.3,13.3,10c0,5.7-4.4,8.6-8,10l-0.2,0.1l9.8,14.9c1.6,2.4,2.9,3.4,5.6,3.5v1.5H338l-11.9-18.9h-4.4v12.5
			c0,4.5,2,4.9,4.9,4.9h0.8v1.5H310v-1.5h0.8c2,0,4.2-0.9,4.2-3.4V8.2c0-4.6-2.8-4.6-4.2-4.6H310V2.1L327.9,2.1z"/>
		<path class="st7" d="M369.5,34.5c0-4.9-4.2-6.8-8.1-8.8c-4.6-2.4-9.8-4.8-9.8-12.2c0-7.2,5.4-11.8,13.2-11.8
			c2.8,0.1,5.6,0.4,8.4,1l0.5,7.8l-1.5,0.2c-0.7-4.1-2.8-7.2-7.4-7.2c-4.3,0-7.5,2.7-7.5,7.4c0,4.5,4.2,6.4,8,8.3
			c4.8,2.4,10.2,4.8,10.2,12.3c0,8.3-7.4,12-14.2,12c-3.3,0-6.6-0.7-9.5-2.3l-1-8.7l1.5-0.3c1.1,5.8,4.8,9.1,9.6,9.1
			C366.5,41.3,369.5,38.5,369.5,34.5z"/>
		<path class="st7" d="M398,2.1v1.5h-0.6c-2.3,0-4.4,0.4-4.4,3.5v30c0,3.1,2.1,3.5,4.4,3.5h0.6v1.5h-16.7v-1.5h0.6
			c2.3,0,4.4-0.4,4.4-3.5v-30c0-3.1-2.1-3.5-4.4-3.5h-0.6V2.1H398z"/>
		<path class="st7" d="M229.3,2.1v1.5h-0.6c-2.3,0-4.4,0.4-4.4,3.5v30c0,3.1,2.1,3.5,4.4,3.5h0.6v1.5h-16.7v-1.5h0.6
			c2.3,0,4.4-0.4,4.4-3.5v-30c0-3.1-2.1-3.5-4.4-3.5h-0.6V2.1H229.3z"/>
		<path class="st7" d="M562.5,59.9l0.1,10.6l-1.7,0.4c-0.4-4.6-1.4-8.4-8.9-8.4h-10v19.6h8.6c4.2,0,5.3-2.3,5.8-6.4h1.7v16.4h-1.7
			c-0.3-3.9-1.2-7-5.8-7H542v17.2c0,5,4.3,5,8.9,5c8.2,0,12-0.5,14.3-8.8l1.7,0.4l-2.3,11.1h-37.2v-1.8h0.7c2.9,0,5.5-0.5,5.5-4.4
			V66.2c0-3.9-2.6-4.4-5.5-4.4h-0.7v-1.8H562.5z"/>
		<path class="st7" d="M351.7,62.2v22.2h4.3c7.8,0,11.3-3.5,11.3-11.6c0-6.6-4.3-10.9-10.7-10.9C354.9,61.9,353.3,62,351.7,62.2z
			 M359.4,59.9c11.1,0,16.6,4.1,16.6,12.5c0,7.1-5.6,10.8-10,12.5l-0.3,0.1l12.3,18.8c2,3,3.6,4.2,7,4.4v1.9h-12.8l-14.9-23.6h-5.5
			v15.6c0,5.7,2.5,6.1,6.1,6.1h1v1.8h-21.8v-1.8h1c2.4,0,5.3-1.1,5.3-4.2V67.5c0-5.8-3.4-5.8-5.3-5.8h-1v-1.8H359.4z"/>
		<path class="st7" d="M409,59.9v1.8h-0.7c-2.9,0-5.5,0.5-5.5,4.4v37.7c0,3.9,2.6,4.4,5.5,4.4h0.7v1.8h-21v-1.8h0.7
			c2.9,0,5.5-0.5,5.5-4.4V66.1c0-3.9-2.6-4.4-5.5-4.4H388v-1.8H409z"/>
		<path class="st7" d="M406.7,2.1h26.5c1.3,0,3-0.3,3.3-2.1h1.3l-1,10.4h-1.4c-0.1-2.4-0.4-5.9-4.3-5.9H423v30.9
			c0,4.8,2.3,5.2,4.9,5.2h0.8v1.5h-18.2v-1.5h0.8c3,0,4.9-0.2,4.9-5.1v-31H408c-4.2,0-4.6,1.8-5.4,5.9h-1.4l1-10.3h1.2
			C403.8,1.8,405.3,2.1,406.7,2.1z"/>
		<path class="st7" d="M478.7,2.1v1.5c-2.3,0.1-3.7,1.7-4.7,3.2l-10.2,15.7v12.8c0,5.1,1.9,5.5,4.9,5.5h0.9v1.5h-18.2v-1.5h0.9
			c3.2,0,4.9-0.8,4.9-5V23.4L446,7.6c-1.7-2.4-3-4-5.6-4H440V2.1h16.5v1.5h-0.5c-3.2,0-3.4,1.7-2,3.6l8.5,13.2l7.6-12
			c1.7-2.6,2.2-4.9-2-4.9h-0.7V2.1"/>
		<path class="st7" d="M498.3,20.4c0,9.9,4.4,20.5,14,20.5c8.8,0,13-6.1,13-18.6c0-9.2-4.9-19-14-19
			C499.2,3.3,498.3,16.4,498.3,20.4z M490.8,22.4c0-11.9,9-21.2,20.5-21.2c12.6,0,21.3,8.1,21.3,19.8c0,12.7-8.8,22-21,22
			S490.8,34.3,490.8,22.4L490.8,22.4z"/>
		<path class="st7" d="M537.3,42.1v-1.5h0.6c2.3,0,4.4-0.4,4.4-3.5v-30c0-3.1-2.1-3.5-4.4-3.5h-0.6V2.1h28l0.1,8.5l-1.4,0.3
			c-0.3-3.4-1.1-6.7-5.9-6.7H549v15.7h8c3.3,0,3.8-2.6,3.8-4.7h1.3V28h-1.3c0-2.5-0.6-5.7-4.7-5.7H549v14.8c0,3.5,3,3.5,5.6,3.5h0.5
			v1.5"/>
		<path class="st7" d="M121.8,84.9c0-7.5,3-14.8,8.2-19.5c5.1-4.5,11.6-6.9,18.4-6.8c5.9-0.1,11.7,1.1,17,3.6l0.6,11.6l-1.6,0.2
			c-1.9-6.7-5-12.9-15.7-12.9c-10.9,0-17.7,8.6-17.7,22.6c0,12.4,5.5,24.1,18.8,24.1c7.5,0,12.8-2.8,16.8-8l1.3,2.5
			c-4.5,5.8-11.5,9-19.5,9C132.2,111.4,121.8,101.8,121.8,84.9z"/>
		<path class="st7" d="M230.1,69.6l-1.7,31c-0.3,6.9,1.8,7.5,6.4,7.6h0.4v1.8h-16.9v-1.8h0.6c5.7-0.2,6-3.4,6.3-8l2-31.7
			c0.2-4.3-2.1-6.8-6.1-6.8h-0.6v-1.9h14.2c0.2,0.4,17,38,17,38l16.1-38h13.9v1.8h-0.3c-5.6,0-6.6,1.8-6.2,8.8l1.9,33.3
			c0.3,3.9,2.3,4.2,6.2,4.4v1.7h-20.8v-1.8h0.1c3.4-0.2,5.8-0.3,5.8-3.8l-0.1-3.6l-1.5-32.1l-17.4,41.7h-1.5
			C248.1,110,230.1,69.6,230.1,69.6z"/>
		<path class="st7" d="M431.7,62.3v39.4c0,5.3,2.2,6.2,7.6,6.2c12.7,0,18.5-10.9,18.5-21.6c0-16.6-6.9-24.2-21-24.2
			C435.5,62,432.9,62.1,431.7,62.3z M416.9,110.1v-1.8h0.7c2.9,0,5.5-0.5,5.5-4.4V66.1c0-3.9-2.6-4.4-5.5-4.4h-0.7v-1.8h22.5
			c8.3,0,15.3,2.1,20.2,6.7s7.4,10.8,7.4,18.3c0,7-2.7,13.7-7.7,18.7c-4.9,4.9-11.8,6.5-18.8,6.5L416.9,110.1z"/>
		<path class="st7" d="M509.7,107.5V95.2c0-2.7-2-4.1-5.7-4.1h-0.6v-1.8h19.3v1.8h-0.6c-2.7,0-4.1,1.4-4.1,4.1v13.7
			c-5.7,1.8-11.7,2.7-17.6,2.7c-16.6,0-27.3-10.7-27.3-27.4c0-17.7,14.1-25.7,27.4-25.7c5.4,0,10.8,0.9,16,2.5l0.8,12l-1.7,0.1
			c-2.1-8.6-5.9-12-14.6-12c-11.7,0-18.7,8.6-18.7,22.4c0,12.7,6,25.3,19.3,25.3C504.4,108.9,507.1,108.4,509.7,107.5z"/>
		<path class="st7" d="M315.7,82.7c6.3,0.5,9.7,1.8,12.5,4.8c2.2,2.2,3.4,5.2,3.4,8.4c0,7.9-7.2,14.2-16.6,14.2h-24.6v-1.8h1
			c2.4,0,5.3-1.2,5.3-4.3V67.5c0-5.8-3.4-5.8-5.3-5.8h-1v-1.8h22.3c10.5,0,16.2,3.8,16.2,11C328.9,78.8,321.9,81.7,315.7,82.7z
			 M305.4,61.7v20.1h3.8c6.9,0,10.7-3.4,10.7-9.8c0-7.1-3.4-10.4-10-10.4L305.4,61.7z M305.4,84.1v17.7c0,4.9,1.6,6.3,6.7,6.3
			c6.1,0,10.7-5,10.7-11.9c0-7.7-4.7-12.1-12.6-12.1L305.4,84.1z"/>
		<path class="st7" d="M189.2,70.1l7,19.6h-14L189.2,70.1z M190.1,59.9l-15.9,43.3c-1.2,3.1-3.3,5-6.4,5h-0.2v1.9h15.3v-1.9h-0.7
			c-3.7,0-6.2-1.2-4.6-5.9l3.6-10.1h15.8l4,11c1.1,3.5-0.4,5.1-4.1,5.1h-0.4v1.8H216v-1.8h-0.1c-2.6,0-4.4-1.4-5.6-4.8l-16.4-43.5
			L190.1,59.9z"/>
		<path class="st7" d="M302,2.1l0.1,8.5l-1.4,0.4c-0.3-3.7-1.1-6.7-7.1-6.7h-8v15.6h6.8c3.4,0,4.3-1.9,4.6-5.1h1.4v13.1h-1.4
			c-0.2-3.1-0.9-5.6-4.6-5.6h-6.9V36c0,4,3.4,4,7.1,4c6.5,0,9.6-0.4,11.4-7l1.3,0.3l-1.8,8.8H274v-1.5h0.6c2.3,0,4.4-0.4,4.4-3.5
			v-30c0-3.1-2.1-3.5-4.4-3.5H274V2.1H302z"/>
	</g>
</g>
</svg>
